<?xml version="1.0" encoding="utf-8"?>
<!-- Generator: Adobe Illustrator 17.0.0, SVG Export Plug-In . SVG Version: 6.00 Build 0)  -->
<!DOCTYPE svg PUBLIC "-//W3C//DTD SVG 1.1//EN" "http://www.w3.org/Graphics/SVG/1.1/DTD/svg11.dtd">
<svg version="1.1" id="Layer_1" xmlns="http://www.w3.org/2000/svg" xmlns:xlink="http://www.w3.org/1999/xlink" x="0px" y="0px"
	 width="165px" height="72px" viewBox="0 0 165 72" enable-background="new 0 0 165 72" xml:space="preserve">
<path fill="#8F1E1F" d="M58.224,33.27c-0.45-0.448-0.96-0.674-1.537-0.674H54c-0.642,0-1.234-0.207-1.776-0.624
	c-0.545-0.413-0.913-0.911-1.105-1.488l-1.537-3.744c-0.321-0.51-0.431-1.104-0.334-1.776c0.095-0.672,0.366-1.232,0.814-1.679
	l1.09-1.087c1.348-0.583,2.541-1.49,3.583-2.722c1.901-2.248,2.642-4.269,2.229-6.065c-0.418-1.796-1.688-3.26-3.811-4.394
	c-2.125-1.135-4.265-0.594-6.423,1.619c-1.628,1.669-2.155,3.309-1.585,4.92l-1.322,1.393c-0.45,0.448-1.025,0.719-1.729,0.816
	c-0.704,0.095-1.311-0.015-1.824-0.336l-3.744-1.537c-0.577-0.127-1.072-0.48-1.488-1.055c-0.418-0.577-0.624-1.184-0.624-1.826
	v-2.592c0-0.639-0.209-1.182-0.625-1.632c-0.418-0.448-0.945-0.672-1.585-0.672h-4.513c-0.575,0-1.087,0.224-1.535,0.672
	c-0.45,0.45-0.672,0.993-0.672,1.632v2.592c0,0.642-0.209,1.249-0.624,1.826c-0.418,0.575-0.913,0.928-1.488,1.055l-3.747,1.537
	c-0.512,0.321-1.102,0.431-1.776,0.336c-0.672-0.097-1.232-0.368-1.679-0.816l-1.921-1.92c-0.448-0.448-0.977-0.672-1.582-0.672
	c-0.609,0-1.139,0.224-1.585,0.672l-3.169,3.167c-0.448,0.45-0.672,0.978-0.672,1.585c0,0.609,0.224,1.137,0.672,1.585l1.921,1.921
	c0.448,0.448,0.719,1.008,0.816,1.679c0.097,0.672-0.017,1.266-0.336,1.776l-1.537,3.744c-0.127,0.577-0.478,1.074-1.055,1.488
	c-0.577,0.418-1.186,0.624-1.824,0.624H3.305c-0.642,0-1.186,0.226-1.634,0.674c-0.448,0.448-0.67,0.96-0.67,1.535v4.513
	c0,0.639,0.222,1.169,0.67,1.585c0.448,0.416,0.993,0.622,1.634,0.622h2.592c0.637,0,1.247,0.209,1.824,0.624
	c0.577,0.418,0.928,0.913,1.055,1.49l1.537,3.744c0.319,0.512,0.433,1.12,0.336,1.824c-0.097,0.704-0.368,1.281-0.816,1.727
	L7.912,52.76c-0.448,0.448-0.672,0.978-0.672,1.583c0,0.609,0.224,1.139,0.672,1.585l3.169,3.169
	c0.446,0.448,0.975,0.672,1.585,0.672c0.605,0,1.135-0.224,1.582-0.672l1.921-1.921c0.448-0.448,1.008-0.719,1.679-0.816
	c0.674-0.095,1.264,0.017,1.776,0.336l3.747,1.537c0.575,0.192,1.07,0.56,1.488,1.103c0.416,0.545,0.624,1.139,0.624,1.776v2.689
	c0,0.577,0.222,1.09,0.672,1.537c0.448,0.448,0.96,0.672,1.535,0.672h4.513c0.639,0,1.167-0.224,1.585-0.672
	c0.416-0.448,0.625-0.96,0.625-1.537v-2.689c0-0.637,0.207-1.232,0.624-1.776c0.416-0.543,0.911-0.911,1.488-1.103l3.744-1.537
	c0.512-0.319,1.12-0.431,1.824-0.336c0.704,0.097,1.279,0.368,1.729,0.816l1.824,1.921c0.448,0.448,0.975,0.672,1.585,0.672
	c0.607,0,1.135-0.224,1.585-0.672l3.169-3.169c0.446-0.446,0.67-0.976,0.67-1.585c0-0.605-0.224-1.135-0.67-1.583l-1.923-1.826
	c-0.448-0.446-0.719-1.023-0.814-1.727c-0.097-0.704,0.013-1.311,0.334-1.824l1.537-3.744c0.192-0.577,0.56-1.072,1.105-1.49
	c0.543-0.415,1.135-0.624,1.776-0.624h2.687c0.577,0,1.087-0.207,1.537-0.622c0.448-0.416,0.672-0.945,0.672-1.585v-4.513
	C58.896,34.23,58.672,33.718,58.224,33.27z M40.27,41.43c-0.577,1.344-1.378,2.513-2.401,3.505
	c-1.025,0.993-2.207,1.774-3.553,2.351c-1.344,0.577-2.784,0.865-4.319,0.865c-1.537,0-2.978-0.288-4.321-0.865
	c-1.344-0.577-2.53-1.359-3.553-2.351c-1.025-0.993-1.824-2.162-2.401-3.505c-0.577-1.344-0.863-2.784-0.863-4.321
	c0-1.535,0.286-2.975,0.863-4.321c0.577-1.341,1.376-2.528,2.401-3.553c1.023-1.023,2.209-1.824,3.553-2.399
	c1.344-0.577,2.784-0.866,4.321-0.866c1.535,0,2.976,0.288,4.319,0.866c1.346,0.575,2.528,1.376,3.553,2.399
	c1.023,1.025,1.824,2.211,2.401,3.553c0.575,1.346,0.863,2.786,0.863,4.321C41.133,38.646,40.844,40.086,40.27,41.43z"/>
<g>
	<path fill="#231F20" stroke="#000000" stroke-width="0.5" stroke-miterlimit="10" d="M71.821,14.979
		c0,0.517-0.067,1.003-0.202,1.46c-0.135,0.457-0.331,0.858-0.589,1.202c-0.258,0.344-0.578,0.618-0.96,0.823
		c-0.382,0.204-0.82,0.306-1.315,0.306c-0.236,0-0.462-0.017-0.678-0.049v4.356h-0.822V11.27c0.376-0.075,0.833-0.113,1.371-0.113
		c0.548,0,1.025,0.105,1.428,0.314c0.403,0.21,0.737,0.493,1,0.847c0.263,0.354,0.457,0.761,0.581,1.218
		C71.759,13.993,71.821,14.474,71.821,14.979z M70.982,14.996c0-0.441-0.048-0.85-0.145-1.226c-0.097-0.376-0.245-0.701-0.443-0.975
		c-0.199-0.275-0.446-0.493-0.742-0.654c-0.296-0.161-0.637-0.242-1.025-0.242c-0.14,0-0.239,0.003-0.298,0.008
		c-0.06,0.005-0.143,0.014-0.25,0.024v6.049c0.226,0.032,0.446,0.048,0.661,0.048c0.344,0,0.656-0.075,0.936-0.226
		c0.28-0.15,0.516-0.36,0.71-0.629c0.193-0.268,0.341-0.588,0.443-0.959C70.931,15.842,70.982,15.437,70.982,14.996z"/>
	<path fill="#231F20" stroke="#000000" stroke-width="0.5" stroke-miterlimit="10" d="M81.112,20.141
		c0,1.044-0.231,1.817-0.693,2.323c-0.463,0.505-1.06,0.758-1.791,0.758c-0.742,0-1.334-0.253-1.774-0.758
		c-0.441-0.506-0.661-1.28-0.661-2.323v-8.887h0.823v9.016c0,0.775,0.153,1.339,0.46,1.694c0.306,0.355,0.702,0.532,1.186,0.532
		c0.484,0,0.876-0.179,1.177-0.54c0.301-0.36,0.452-0.933,0.452-1.717v-8.985h0.823V20.141z"/>
	<path fill="#231F20" stroke="#000000" stroke-width="0.5" stroke-miterlimit="10" d="M86.096,23.077V11.254h0.823v11.065h3v0.758
		H86.096z"/>
	<path fill="#231F20" stroke="#000000" stroke-width="0.5" stroke-miterlimit="10" d="M98.257,20.415
		c0,0.419-0.065,0.805-0.193,1.154c-0.13,0.349-0.301,0.648-0.516,0.896c-0.215,0.247-0.47,0.438-0.766,0.573
		c-0.296,0.134-0.616,0.201-0.96,0.201c-0.44,0-0.854-0.094-1.241-0.282c-0.388-0.188-0.753-0.422-1.097-0.702l0.403-0.677
		c0.28,0.248,0.583,0.46,0.911,0.637c0.328,0.178,0.664,0.266,1.008,0.266c0.495,0,0.889-0.18,1.185-0.54
		c0.296-0.361,0.444-0.858,0.444-1.493c0-0.333-0.046-0.637-0.137-0.911c-0.092-0.274-0.218-0.538-0.379-0.791
		c-0.162-0.252-0.35-0.502-0.565-0.75c-0.215-0.247-0.446-0.5-0.694-0.758c-0.236-0.247-0.465-0.497-0.685-0.75
		c-0.221-0.252-0.419-0.518-0.597-0.798c-0.177-0.279-0.319-0.578-0.427-0.896c-0.108-0.317-0.161-0.658-0.161-1.024
		c0-0.397,0.059-0.761,0.177-1.088c0.118-0.328,0.283-0.611,0.492-0.847c0.21-0.236,0.454-0.419,0.734-0.548
		c0.279-0.129,0.586-0.194,0.919-0.194c0.474,0,0.866,0.084,1.177,0.25c0.312,0.167,0.602,0.374,0.871,0.622l-0.403,0.693
		c-0.248-0.236-0.501-0.43-0.758-0.581c-0.258-0.15-0.559-0.225-0.903-0.225c-0.452,0-0.812,0.174-1.081,0.524
		c-0.269,0.35-0.403,0.804-0.403,1.363c0,0.291,0.049,0.568,0.145,0.831c0.097,0.264,0.226,0.519,0.388,0.767
		c0.161,0.248,0.347,0.487,0.556,0.718c0.21,0.231,0.428,0.465,0.654,0.701c0.236,0.258,0.467,0.519,0.693,0.783
		c0.226,0.264,0.427,0.544,0.605,0.839c0.178,0.296,0.322,0.611,0.435,0.944C98.201,19.652,98.257,20.018,98.257,20.415z"/>
	<path fill="#231F20" stroke="#000000" stroke-width="0.5" stroke-miterlimit="10" d="M108.178,17.125
		c0,0.807-0.06,1.578-0.178,2.314c-0.118,0.737-0.296,1.387-0.532,1.952c-0.236,0.565-0.535,1.014-0.895,1.347
		c-0.361,0.333-0.783,0.5-1.267,0.5c-0.484,0-0.906-0.166-1.266-0.5c-0.361-0.333-0.657-0.78-0.888-1.339
		c-0.231-0.559-0.406-1.204-0.524-1.935c-0.118-0.731-0.177-1.5-0.177-2.306c0-0.796,0.059-1.559,0.177-2.291
		c0.118-0.731,0.299-1.376,0.541-1.935c0.242-0.558,0.543-1.005,0.902-1.338c0.361-0.333,0.788-0.501,1.282-0.501
		c0.484,0,0.901,0.165,1.25,0.492c0.35,0.328,0.643,0.769,0.88,1.323c0.236,0.554,0.411,1.197,0.524,1.928
		C108.122,15.566,108.178,16.329,108.178,17.125z M107.339,17.141c0-0.785-0.048-1.506-0.145-2.162
		c-0.096-0.656-0.234-1.218-0.411-1.685c-0.178-0.468-0.389-0.831-0.637-1.089c-0.247-0.258-0.522-0.387-0.822-0.387
		c-0.291,0-0.563,0.129-0.815,0.387c-0.253,0.258-0.467,0.621-0.645,1.089c-0.178,0.467-0.318,1.029-0.419,1.685
		c-0.102,0.657-0.153,1.377-0.153,2.162c0,0.784,0.051,1.506,0.153,2.161c0.102,0.656,0.242,1.22,0.419,1.694
		c0.178,0.473,0.392,0.841,0.645,1.105c0.252,0.263,0.524,0.395,0.815,0.395c0.3,0,0.575-0.131,0.822-0.395
		c0.248-0.263,0.46-0.632,0.637-1.105c0.178-0.474,0.315-1.038,0.411-1.694C107.291,18.647,107.339,17.926,107.339,17.141z"/>
</g>
<g>
	<path fill="#231F20" stroke="#000000" stroke-width="0.5" stroke-miterlimit="10" d="M67.171,39.457V26.672h0.889v12.784H67.171z"
		/>
	<path fill="#231F20" stroke="#000000" stroke-width="0.5" stroke-miterlimit="10" d="M79.013,39.492l-4.168-9.802l0.018,9.767
		H73.99V26.672l0.384-0.034l4.151,9.801v-9.767h0.854v12.802L79.013,39.492z"/>
	<path fill="#231F20" stroke="#000000" stroke-width="0.5" stroke-miterlimit="10" d="M90.872,33.039
		c0,0.953-0.095,1.829-0.288,2.624c-0.192,0.797-0.471,1.483-0.837,2.058c-0.366,0.576-0.811,1.027-1.334,1.352
		c-0.523,0.326-1.116,0.488-1.779,0.488c-0.488,0-0.954-0.046-1.395-0.139V26.672c0.197-0.034,0.415-0.06,0.654-0.078
		c0.238-0.017,0.48-0.026,0.724-0.026c0.685,0,1.29,0.165,1.814,0.497c0.523,0.331,0.968,0.784,1.334,1.36
		c0.366,0.575,0.643,1.259,0.828,2.049C90.779,31.265,90.872,32.12,90.872,33.039z M89.965,33.039c0-0.814-0.075-1.567-0.227-2.258
		c-0.151-0.692-0.369-1.291-0.654-1.797c-0.285-0.505-0.631-0.901-1.038-1.185c-0.407-0.285-0.866-0.428-1.377-0.428
		c-0.105,0-0.204,0.003-0.297,0.009c-0.094,0.006-0.174,0.015-0.244,0.026v11.302c0.163,0.035,0.342,0.052,0.541,0.052
		c1.011,0,1.814-0.497,2.406-1.492C89.669,36.274,89.965,34.864,89.965,33.039z"/>
	<path fill="#231F20" stroke="#000000" stroke-width="0.5" stroke-miterlimit="10" d="M101.598,36.283
		c0,1.127-0.25,1.964-0.75,2.511c-0.5,0.546-1.145,0.819-1.936,0.819c-0.802,0-1.442-0.273-1.918-0.819
		c-0.477-0.547-0.715-1.384-0.715-2.511v-9.61h0.889v9.75c0,0.837,0.165,1.448,0.497,1.831c0.331,0.383,0.759,0.575,1.282,0.575
		c0.523,0,0.948-0.194,1.274-0.584c0.325-0.389,0.488-1.008,0.488-1.858v-9.715h0.889V36.283z"/>
	<path fill="#231F20" stroke="#000000" stroke-width="0.5" stroke-miterlimit="10" d="M111.818,36.578
		c0,0.453-0.07,0.869-0.21,1.247c-0.139,0.378-0.326,0.7-0.558,0.968c-0.233,0.267-0.509,0.474-0.829,0.619
		c-0.319,0.145-0.665,0.218-1.037,0.218c-0.477,0-0.924-0.101-1.343-0.306c-0.419-0.203-0.814-0.456-1.186-0.758l0.436-0.733
		c0.302,0.268,0.63,0.497,0.986,0.689c0.354,0.192,0.718,0.288,1.09,0.288c0.535,0,0.962-0.195,1.281-0.585
		c0.32-0.389,0.48-0.927,0.48-1.613c0-0.36-0.049-0.689-0.148-0.986c-0.099-0.296-0.235-0.581-0.41-0.854
		c-0.174-0.273-0.378-0.543-0.611-0.81c-0.232-0.268-0.482-0.541-0.749-0.82c-0.256-0.267-0.503-0.537-0.741-0.811
		c-0.238-0.273-0.453-0.561-0.645-0.863c-0.192-0.303-0.347-0.625-0.462-0.968c-0.116-0.343-0.174-0.713-0.174-1.107
		c0-0.431,0.063-0.823,0.192-1.177c0.128-0.354,0.305-0.66,0.531-0.916c0.227-0.256,0.491-0.453,0.794-0.594
		c0.302-0.139,0.634-0.209,0.994-0.209c0.511,0,0.936,0.09,1.273,0.271c0.337,0.18,0.651,0.404,0.942,0.671l-0.436,0.75
		c-0.268-0.256-0.541-0.465-0.82-0.628c-0.278-0.163-0.604-0.244-0.976-0.244c-0.488,0-0.878,0.189-1.169,0.566
		c-0.291,0.378-0.436,0.869-0.436,1.474c0,0.313,0.052,0.614,0.157,0.898c0.105,0.284,0.244,0.561,0.418,0.828
		c0.174,0.268,0.376,0.526,0.602,0.776c0.227,0.25,0.462,0.503,0.705,0.759c0.256,0.278,0.506,0.561,0.75,0.846
		c0.244,0.285,0.462,0.587,0.654,0.907c0.193,0.319,0.349,0.66,0.471,1.02C111.757,35.753,111.818,36.149,111.818,36.578z"/>
	<path fill="#231F20" stroke="#000000" stroke-width="0.5" stroke-miterlimit="10" d="M119.387,27.492v11.964h-0.872V27.492h-2.093
		v-0.82h5.058v0.82H119.387z"/>
	<path fill="#231F20" stroke="#000000" stroke-width="0.5" stroke-miterlimit="10" d="M130.967,39.457l-2.076-5.337
		c-0.094,0.011-0.195,0.02-0.305,0.026c-0.11,0.006-0.218,0.009-0.322,0.009c-0.14,0-0.274-0.003-0.402-0.009
		s-0.25-0.015-0.366-0.026v5.337h-0.889V26.69c0.221-0.034,0.45-0.063,0.689-0.087c0.238-0.024,0.485-0.035,0.741-0.035
		c0.615,0,1.15,0.104,1.604,0.314c0.453,0.209,0.828,0.488,1.125,0.837c0.296,0.348,0.514,0.753,0.654,1.212
		c0.139,0.46,0.209,0.938,0.209,1.438c0,0.884-0.183,1.617-0.55,2.198c-0.366,0.581-0.828,1.006-1.387,1.273l2.233,5.616H130.967z
		 M130.722,30.37c0-0.907-0.227-1.633-0.68-2.18c-0.453-0.546-1.122-0.82-2.005-0.82c-0.116,0-0.207,0.003-0.271,0.009
		c-0.064,0.006-0.155,0.015-0.271,0.026v5.947c0.093,0.012,0.203,0.021,0.331,0.026c0.128,0.006,0.268,0.009,0.419,0.009
		c0.732,0,1.328-0.253,1.787-0.758C130.492,32.123,130.722,31.37,130.722,30.37z"/>
	<path fill="#231F20" stroke="#000000" stroke-width="0.5" stroke-miterlimit="10" d="M137.158,39.457V26.672h0.89v12.784H137.158z"
		/>
	<path fill="#231F20" stroke="#000000" stroke-width="0.5" stroke-miterlimit="10" d="M148.582,39.457l-0.785-3.593h-2.877
		l-0.803,3.593h-0.872l2.93-12.906h0.401l2.913,12.906H148.582z M146.349,28.958l-1.255,6.104h2.511L146.349,28.958z"/>
	<path fill="#231F20" stroke="#000000" stroke-width="0.5" stroke-miterlimit="10" d="M154.616,39.457V26.672h0.889v11.964h3.244
		v0.82H154.616z"/>
</g>
<g>
	<path fill="#8F1E1F" d="M102.032,44.053l-1.773,2.324c-0.844-0.668-1.79-0.945-2.836-0.831c-1.046,0.114-1.788,0.598-2.225,1.454
		c-0.437,0.855-0.637,2.012-0.6,3.469c0.037,1.457,0.275,2.493,0.716,3.106c0.44,0.613,1.241,1.042,2.401,1.289
		c1.16,0.246,2.269-0.185,3.326-1.294l1.74,2.081c-0.771,0.845-1.529,1.472-2.274,1.883c-0.745,0.411-1.782,0.569-3.111,0.474
		c-1.329-0.095-2.46-0.519-3.392-1.272c-0.933-0.753-1.59-1.867-1.971-3.342c-0.382-1.476-0.468-3.088-0.259-4.835
		c0.209-1.747,0.753-3.086,1.63-4.015c0.877-0.929,1.837-1.512,2.88-1.751c1.042-0.238,2.012-0.303,2.908-0.193
		C100.086,42.709,101.033,43.194,102.032,44.053z"/>
	<path fill="#8F1E1F" d="M108.948,42.533l-0.022,3.018l-1.707-0.022l-0.011,9.582h1.828l0.011,2.863l-6.421,0.011v-2.853h1.784
		v-9.582l-1.586-0.022v-2.996H108.948z"/>
	<path fill="#8F1E1F" d="M122.77,48.172c0.426,3.76-0.114,6.357-1.619,7.792c-1.505,1.436-3.168,2.16-4.989,2.175
		c-1.821,0.015-3.455-0.69-4.901-2.115c-1.447-1.424-1.971-4.018-1.575-7.781c0.396-3.763,2.57-5.656,6.52-5.678
		C120.156,42.544,122.344,44.412,122.77,48.172z M112.362,50.039c-0.007,3.11,1.274,4.65,3.844,4.62
		c2.57-0.029,3.814-1.586,3.733-4.67c-0.081-3.084-1.362-4.624-3.844-4.62C113.614,45.373,112.37,46.929,112.362,50.039z"/>
	<path fill="#8F1E1F" d="M153.836,42.566v12.236l6.278,0.011v3.15h-9.295V42.577L153.836,42.566z"/>
	<g>
		<rect x="74.045" y="42.575" fill="#8F1E1F" width="3.454" height="15.388"/>
		<rect x="66.125" y="42.575" fill="#8F1E1F" width="3.245" height="15.421"/>
		<polygon fill="#8F1E1F" points="66.125,42.575 69.37,42.575 77.498,57.963 74.045,57.963 		"/>
	</g>
	<g>
		<rect x="131.828" y="42.575" fill="#8F1E1F" width="3.454" height="15.388"/>
		<rect x="123.908" y="42.575" fill="#8F1E1F" width="3.245" height="15.421"/>
		<polygon fill="#8F1E1F" points="123.908,42.575 127.153,42.575 135.282,57.963 131.828,57.963 		"/>
	</g>
	<g>
		<path fill="#8F1E1F" d="M87.688,48.259l0.022-2.91c-2.36-0.052-3.992,0.673-4.896,2.174c-0.904,1.501-1.302,3.498-1.195,5.991
			c0.088,2.062,0.585,3.529,1.488,4.405h-3.786c-0.423-0.92-0.66-1.924-0.711-3.011c-0.099-2.146,0.017-4.031,0.349-5.654
			c0.332-1.623,1.138-3.113,2.418-4.47c1.28-1.357,3.122-2.121,5.526-2.29l3.662-0.011l-0.033,15.545l-2.877-0.022v-7.081
			L87.688,48.259z"/>
		<rect x="80.16" y="50.024" fill="#8F1E1F" width="10.39" height="2.063"/>
	</g>
	<g>
		<path fill="#8F1E1F" d="M146.009,48.259l0.022-2.91c-2.361-0.052-3.992,0.673-4.896,2.174c-0.904,1.501-1.302,3.498-1.195,5.991
			c0.088,2.062,0.585,3.529,1.488,4.405h-3.786c-0.423-0.92-0.661-1.924-0.711-3.011c-0.099-2.146,0.017-4.031,0.349-5.654
			c0.332-1.623,1.138-3.113,2.417-4.47c1.28-1.357,3.122-2.121,5.527-2.29l3.662-0.011l-0.033,15.545l-2.877-0.022v-7.081
			L146.009,48.259z"/>
		<rect x="138.481" y="50.024" fill="#8F1E1F" width="10.39" height="2.063"/>
	</g>
</g>
<g>
	<defs>
		<path id="SVGID_386_" d="M58.224,33.27c-0.45-0.448-0.96-0.674-1.537-0.674H54c-0.642,0-1.234-0.207-1.776-0.624
			c-0.545-0.413-0.913-0.911-1.105-1.488l-1.537-3.744c-0.321-0.51-0.431-1.104-0.334-1.776c0.095-0.672,0.366-1.232,0.814-1.679
			l1.09-1.087c1.348-0.583,2.541-1.49,3.583-2.722c1.901-2.248,2.642-4.269,2.229-6.065c-0.418-1.796-1.688-3.26-3.811-4.394
			c-2.125-1.135-4.265-0.594-6.423,1.619c-1.628,1.669-2.155,3.309-1.585,4.92l-1.322,1.393c-0.45,0.448-1.025,0.719-1.729,0.816
			c-0.704,0.095-1.311-0.015-1.824-0.336l-3.744-1.537c-0.577-0.127-1.072-0.48-1.488-1.055c-0.418-0.577-0.624-1.184-0.624-1.826
			v-2.592c0-0.639-0.209-1.182-0.625-1.632c-0.418-0.448-0.945-0.672-1.585-0.672h-4.513c-0.575,0-1.087,0.224-1.535,0.672
			c-0.45,0.45-0.672,0.993-0.672,1.632v2.592c0,0.642-0.209,1.249-0.624,1.826c-0.418,0.575-0.913,0.928-1.488,1.055l-3.747,1.537
			c-0.512,0.321-1.102,0.431-1.776,0.336c-0.672-0.097-1.232-0.368-1.679-0.816l-1.921-1.92c-0.448-0.448-0.977-0.672-1.582-0.672
			c-0.609,0-1.139,0.224-1.585,0.672l-3.169,3.167c-0.448,0.45-0.672,0.978-0.672,1.585c0,0.609,0.224,1.137,0.672,1.585
			l1.921,1.921c0.448,0.448,0.719,1.008,0.816,1.679c0.097,0.672-0.017,1.266-0.336,1.776l-1.537,3.744
			c-0.127,0.577-0.478,1.074-1.055,1.488c-0.577,0.418-1.186,0.624-1.824,0.624H3.305c-0.642,0-1.186,0.226-1.634,0.674
			c-0.448,0.448-0.67,0.96-0.67,1.535v4.513c0,0.639,0.222,1.169,0.67,1.585c0.448,0.416,0.993,0.622,1.634,0.622h2.592
			c0.637,0,1.247,0.209,1.824,0.624c0.577,0.418,0.928,0.913,1.055,1.49l1.537,3.744c0.319,0.512,0.433,1.12,0.336,1.824
			c-0.097,0.704-0.368,1.281-0.816,1.727L7.912,52.76c-0.448,0.448-0.672,0.978-0.672,1.583c0,0.609,0.224,1.139,0.672,1.585
			l3.169,3.169c0.446,0.448,0.975,0.672,1.585,0.672c0.605,0,1.135-0.224,1.582-0.672l1.921-1.921
			c0.448-0.448,1.008-0.719,1.679-0.816c0.674-0.095,1.264,0.017,1.776,0.336l3.747,1.537c0.575,0.192,1.07,0.56,1.488,1.103
			c0.416,0.545,0.624,1.139,0.624,1.776v2.689c0,0.577,0.222,1.09,0.672,1.537c0.448,0.448,0.96,0.672,1.535,0.672h4.513
			c0.639,0,1.167-0.224,1.585-0.672c0.416-0.448,0.625-0.96,0.625-1.537v-2.689c0-0.637,0.207-1.232,0.624-1.776
			c0.416-0.543,0.911-0.911,1.488-1.103l3.744-1.537c0.512-0.319,1.12-0.431,1.824-0.336c0.704,0.097,1.279,0.368,1.729,0.816
			l1.824,1.921c0.448,0.448,0.975,0.672,1.585,0.672c0.607,0,1.135-0.224,1.585-0.672l3.169-3.169
			c0.446-0.446,0.67-0.976,0.67-1.585c0-0.605-0.224-1.135-0.67-1.583l-1.923-1.826c-0.448-0.446-0.719-1.023-0.814-1.727
			c-0.097-0.704,0.013-1.311,0.334-1.824l1.537-3.744c0.192-0.577,0.56-1.072,1.105-1.49c0.543-0.415,1.135-0.624,1.776-0.624h2.687
			c0.577,0,1.087-0.207,1.537-0.622c0.448-0.416,0.672-0.945,0.672-1.585v-4.513C58.896,34.23,58.672,33.718,58.224,33.27z
			 M40.27,41.43c-0.577,1.344-1.378,2.513-2.401,3.505c-1.025,0.993-2.207,1.774-3.553,2.351c-1.344,0.577-2.784,0.865-4.319,0.865
			c-1.537,0-2.978-0.288-4.321-0.865c-1.344-0.577-2.53-1.359-3.553-2.351c-1.025-0.993-1.824-2.162-2.401-3.505
			c-0.577-1.344-0.863-2.784-0.863-4.321c0-1.535,0.286-2.975,0.863-4.321c0.577-1.341,1.376-2.528,2.401-3.553
			c1.023-1.023,2.209-1.824,3.553-2.399c1.344-0.577,2.784-0.866,4.321-0.866c1.535,0,2.976,0.288,4.319,0.866
			c1.346,0.575,2.528,1.376,3.553,2.399c1.023,1.025,1.824,2.211,2.401,3.553c0.575,1.346,0.863,2.786,0.863,4.321
			C41.133,38.646,40.844,40.086,40.27,41.43z"/>
	</defs>
	<clipPath id="SVGID_1_">
		<use xlink:href="#SVGID_386_"  overflow="visible"/>
	</clipPath>
	<g clip-path="url(#SVGID_1_)">
		<path opacity="0.5" fill-rule="evenodd" clip-rule="evenodd" fill="#C43038" d="M-10.788,39.47
			c0.754-4.071,1.227-8.219,2.311-12.201C-4.516,12.712,3.447,1.612,18.72-2.663c17.127-4.793,34.531-6.539,52.224-4.034
			c9.405,1.332,18.46,3.834,26.49,9.16c10.015,6.642,17.836,14.994,20.454,27.19c1.588,7.391,1.518,14.898,1.146,22.398
			c-0.103,2.071,0.372,3.737,1.523,5.561c4.553,7.214,4.414,14.749,0.606,22.226c-3.61,7.09-9.781,9.393-17.388,9.226
			c-1.75-0.039-3.697,0.905-5.266,1.867c-7.02,4.3-14.23,8.109-22.672,8.366c-5.704,0.174-11.421-0.111-17.132-0.173
			c-9.947-0.107-19.902,0.04-29.837-0.348C8.183,97.967-5.187,86.302-9.019,66.007c-0.74-3.916-1.187-7.888-1.769-11.835
			C-10.788,49.271-10.788,44.371-10.788,39.47z M91.439,85.87C89.195,77.872,87,69.85,86.564,61.508
			c-0.721-13.796,2.653-26.242,13.21-35.786c3.164-2.86,7.25-4.701,11.012-7.07c-1.017-2.469-1.794-2.942-5.078-2.637
			c-10.366,0.968-19.784,9.397-21.306,19.982c-1.813,12.613-3.239,25.325-2.478,38.102c0.256,4.302,1.402,8.594,2.539,12.783
			c0.572,2.11,2.032,3.98,3.147,6.063C92.837,90.851,92.837,90.851,91.439,85.87z M99.279,46.006
			c-0.141,0.717,0.172,1.747,0.651,2.327c3.201,3.88,4.237,8.414,4.155,13.283c-0.009,0.576-0.617,1.143-0.947,1.714
			c-0.59-0.562-1.558-1.044-1.697-1.702c-0.334-1.579-0.109-3.274-0.426-4.858c-0.389-1.947-1.1-3.83-1.671-5.74
			c-0.31,0.053-0.62,0.106-0.93,0.157c0,2.109,0.052,4.22-0.009,6.327c-0.262,8.913-0.153,17.794,1.68,26.582
			c0.257,1.232,0.566,1.884,1.928,1.74c2.426-0.26,4.927-0.169,7.281-0.716c8.271-1.919,13.096-10.125,11.62-19.371
			c-0.575-3.603-1.999-6.752-4.354-9.583c-1.243-1.494-2.409-1.445-3.561-0.365c-1.055,0.99-1.763,2.34-2.691,3.477
			c-0.455,0.556-1.062,0.991-1.599,1.48c-0.5-0.655-1.314-1.253-1.44-1.974c-0.425-2.395-0.532-4.844-0.89-7.253
			c-0.633-4.242-2.098-8.145-5.34-11.94C100.345,42.032,99.673,43.992,99.279,46.006z M88.779,0.705
			C81.44-2.346,73.744-3.843,65.86-4.381c-16.596-1.13-32.909,0.195-48.662,5.983c-0.677,0.249-1.333,0.552-2.29,0.951
			c2.413,0.856,4.51,1.616,6.621,2.336c0.31,0.105,0.727,0.119,1.026,0.001c6.066-2.41,12.442-3.395,18.882-3.912
			c12.759-1.023,25.512-1.222,38.119,1.516c7.736,1.68,14.618,5.112,20.827,10.098c1.214,0.975,3.606,0.484,5.454,0.67
			c0.047-0.245,0.096-0.49,0.143-0.736C101.064,7.424,95.36,3.441,88.779,0.705z M13.038,9.027
			c5.462,0.708,9.411,3.674,12.255,8.307c3.763,6.133,5.735,12.842,6.374,19.947c0.807,8.969,0.772,17.972-0.716,26.843
			C28.862,76.567,19.916,84.641,6.684,86.675c-0.647,0.099-1.29,0.225-1.995,0.349c2.645,3.55,4.968,4.396,8.578,2.366
			c4.043-2.274,8.078-4.729,11.61-7.706c6.212-5.237,8.377-12.606,9.193-20.38c1.189-11.296,1.839-22.628,0.62-33.964
			C33.088,12.45,21.972,6.208,11.3,5.223C9.628,5.068,7.778,6.839,6.009,7.718C6.1,7.95,6.189,8.181,6.279,8.411
			C8.533,8.611,10.797,8.737,13.038,9.027z M4.557,83.827c1.023-0.174,2.045-0.366,3.053-0.606
			c12.755-3.03,18.61-9.226,20.556-22.207c1.503-10.022,1.877-20.087-0.197-30.099c-0.968-4.67-2.391-9.186-5.199-13.142
			c-2.99-4.211-6.928-6.621-12.226-6.467c-1.112,0.032-2.245,0.203-3.335,0.06c-4.238-0.56-6.344,1.86-7.868,5.629
			c1.127-0.178,2.104-0.343,3.084-0.486c6.945-1.013,12.816,0.885,17.133,6.591c6.207,8.204,8.088,17.667,7.615,27.703
			c-0.301,6.38-2.143,12.361-5.26,17.956c-4.102,7.364-10.438,11.109-18.741,11.737c-1.318,0.1-2.638,0.186-4.182,0.295
			C0.988,84.366,1.073,84.414,4.557,83.827z M-4.716,25.143c-5.193,17.156-4.516,34.059,1.351,50.879
			c0.494,1.418,1.182,2.152,2.799,1.467c1.24-19.136-2.33-38.54,3.741-57.631C-1.253,20.025-3.549,21.287-4.716,25.143z
			 M112.925,21.794c-2.892,1.481-5.715,2.593-8.173,4.246C97.86,30.678,94.041,37.58,91.29,45.189
			c-3.449,9.535-2.548,19.14-0.348,28.724c1.125,4.906,2.54,9.744,3.844,14.69c2.174-0.683,3.024-1.608,2.82-4.018
			c-0.847-10.044-1.505-20.108-1.947-30.178c-0.167-3.822,0.046-7.754,0.774-11.503c1.686-8.69,7.996-14.153,16.738-15.078
			c0.511-0.054,1.017-0.151,1.966-0.295C114.403,25.629,113.776,24.003,112.925,21.794z M49.98,23.582
			c-3.116,0.177-5.806,2.186-6.693,5.044c-0.901,2.903,0.469,5.082,2.552,6.842c4.881,4.127,10.712,5.856,16.96,6.433
			c0.218,0.02,0.472,0.04,0.66-0.048c1.031-0.478,2.046-0.991,3.068-1.491c-0.541-0.907-0.928-1.969-1.654-2.69
			c-1.625-1.613-3.499-2.977-5.101-4.612c-0.587-0.597-0.691-1.67-1.015-2.525c0.817-0.196,1.633-0.556,2.451-0.558
			c2.296-0.005,4.591,0.198,6.887,0.193c0.941-0.003,1.996-0.122,2.786-0.565c0.67-0.376,1.32-1.255,1.425-1.99
			c0.061-0.428-0.88-1.243-1.522-1.488c-5.477-2.096-11.21-2.662-17.025-2.556C52.497,23.571,51.235,23.511,49.98,23.582z
			 M16.903,70.01c0.343-0.444,0.322-1.234,0.324-1.864c0.023-8.302-0.207-16.611,0.118-24.9c0.166-4.256,1.133-8.515,2.096-12.69
			c0.432-1.872,0.288-3.303-0.901-4.679c-1.184-1.371-2.418-2.698-4.058-4.522c-3.243,18.383-4.821,36.187-5.137,54.472
			C12.68,74.524,14.989,72.497,16.903,70.01z M36,67.834c-0.052,0.486,0.421,1.323,0.865,1.516
			c3.798,1.652,7.594,3.333,11.502,4.689c1.304,0.452,2.925-0.04,4.402-0.051c4.007-0.03,8.039-0.312,12.01,0.058
			c2.407,0.224,4.803,1.29,7.05,2.318c2.456,1.121,4.777,2.381,7.656,1.233c0.186-2.392-0.47-4.166-2.703-5.671
			c-6.402-4.313-13.464-5.941-21.04-6.135c-4.063-0.105-8.145-0.336-12.166-0.891c-2.222-0.306-4.336-1.396-6.678-2.193
			C36.587,64.376,36.183,66.093,36,67.834z M31.338,8.912c8.262-2.271,16.753-1.817,25.202-1.416
			c9.278,0.439,18.495,1.328,27.239,4.786c2.613,1.033,5.202,2.173,7.664,3.519c1.398,0.763,2.467,0.955,3.799,0
			c0.872-0.625,1.933-0.984,3.088-1.551c-5.727-4.767-12.188-7.543-19.224-9.08C68.713,2.9,58.166,2.943,47.66,3.667
			c-6.547,0.451-13.029,1.819-19.536,2.806c-0.697,0.106-1.363,0.416-2.118,0.655C27.449,9.089,28.916,9.578,31.338,8.912z
			 M6.351,19.296c-5.136,19.255-3.93,38.618-3.772,58.022c0.637,0,1.146,0.056,1.636-0.014c0.725-0.104,1.437-0.298,2.307-0.488
			c0.145-19.004,1.87-37.809,5.076-56.743C9.569,19.772,7.774,19.507,6.351,19.296z M71.869,42.889
			c-1.463,0.455-2.778,0.896-4.112,1.272c-0.921,0.258-1.869,0.615-2.802,0.606c-7.159-0.076-13.836-1.775-19.472-6.414
			c-4.295-3.536-7.079-7.671-3.995-13.793c-1.619,0.254-2.897,0.456-3.991,0.628c0.212,5.146,0.406,10.098,0.639,15.046
			c0.018,0.392,0.205,0.924,0.498,1.135c5.201,3.745,9.897,8.513,16.774,9.058c4.642,0.37,9.308,0.438,13.963,0.645
			c0.738,0.033,1.477,0.088,2.496,0.149C71.869,48.416,71.869,45.781,71.869,42.889z M91.088,18.147
			C71.732,9.41,51.829,8.95,30.944,11.793c1.004,1.488,1.667,2.274,2.107,3.17c0.599,1.218,1.387,1.399,2.677,1.156
			c7.51-1.412,15.044-2.595,22.745-2.151c10.676,0.617,18.801,3.583,27.229,10.114C87.472,22.132,89.102,20.336,91.088,18.147z
			 M79.577,86.827c-8.442,0.189-16.892,0.447-25.328,0.24c-3.733-0.092-7.472-1.091-11.152-1.926
			c-4.253-0.965-8.105-2.843-11.267-6.07c-1.485,1.762-2.902,3.444-4.319,5.126c9.138,8.08,38.069,10.639,54.933,4.838
			C82.326,86.992,81.233,86.789,79.577,86.827z M33.036,76.958c4.083,4.474,9.682,5.458,15.294,6.578
			c10.497,2.097,20.992,1.026,31.498,0.298c0.206-0.013,0.406-0.134,0.834-0.282c-0.181-0.834-0.362-1.667-0.465-2.144
			c-4.419,0-8.633,0.008-12.847-0.003c-4.653-0.011-9.111-0.965-13.46-2.619c-6.212-2.361-12.468-4.609-18.8-6.939
			C34.494,73.333,33.781,75.106,33.036,76.958z M82.362,92.496C70.035,95.389,57.623,96.28,45.1,93.85
			c-6.452-1.253-12.577-3.421-18.216-6.821c-1.179-0.712-1.905-0.726-3.09,0.086c-3.026,2.073-6.224,3.897-9.457,5.885
			c4.108,1.921,8.532,2.919,13.022,2.952c16.457,0.125,32.917,0.086,49.373-0.08c2.803-0.028,5.597-0.976,8.413-1.502
			C84.81,92.154,83.79,92.16,82.362,92.496z M36.357,22.041c16.381-2.181,32.497-3.644,46.129,8.419
			c0.097-0.074,0.251-0.133,0.297-0.238c1.866-4.217,1.869-4.225-1.934-7.032c-6.24-4.604-13.488-6.391-20.98-6.201
			c-7.9,0.2-15.775,1.422-23.659,2.211c-0.196,0.019-0.377,0.194-0.724,0.385C35.777,20.407,36.062,21.213,36.357,22.041z
			 M37.573,55.614c-0.498,4.544-0.388,5,4.169,6.052c3.21,0.742,6.599,1.194,9.88,1.062c9.785-0.394,18.865,1.374,26.821,7.418
			c0.095,0.072,0.278,0.027,0.42,0.036c0.741-3.942,0.609-4.109-2.565-6.263c-4.097-2.779-8.596-3.826-13.487-3.535
			c-4.38,0.26-8.793,0.344-12.925-1.359c-3.258-1.342-6.368-3.05-9.531-4.621c-0.774-0.383-1.497-0.868-2.479-1.445
			C37.752,54.048,37.658,54.831,37.573,55.614z M38.072,44.716c-0.523,5.198,0.239,6.212,5.255,8.676
			c6.205,3.047,12.774,3.96,19.571,4.079c3.003,0.052,6,0.459,9.136,0.716c0-1.055,0-2.406,0-4.203
			c-3.299,0-6.453,0.028-9.605-0.005c-6.247-0.065-12.188-1.583-17.679-4.458c-2.36-1.236-4.28-3.313-6.494-5.084
			C38.151,44.593,38.078,44.651,38.072,44.716z M19.998,64.719c4.505-6.022,6.318-22.258,1.842-31.685
			C19.159,43.717,19.598,54.184,19.998,64.719z M112.64,47.91c-0.639-4.183-1.761-8.099-4.911-11.143
			c-2.628-2.538-2.949-2.487-5.163,0.811c4.125,4.633,6.252,10.217,6.874,16.34C112.744,52.985,113.071,50.734,112.64,47.91z
			 M115.958,52.126c0.632-7.15,1.108-14.248-0.328-21.759c-2.909,0.766-5.574,1.467-8.238,2.169
			c-0.044,0.219-0.089,0.437-0.133,0.657C113.612,37.936,115.286,44.787,115.958,52.126z M76.569,48.144
			c0.134-2.439,1.079-4.588,3.307-6.227c0.939-0.691,0.931-2.67,1.389-4.178c-3.656-0.056-5.572,1.395-5.992,4.751
			c-0.421,3.362-0.483,6.776-0.563,10.17c-0.05,2.135,0.115,4.279,0.272,6.414c0.041,0.549,0.41,1.074,0.629,1.611
			c0.299-0.061,0.599-0.122,0.898-0.182C76.507,56.382,76.344,52.252,76.569,48.144z M70.538,40.127
			c1.97,0.347,2.797-2.039,3.812-3.84c0.351-0.623-0.238-1.915-0.659-2.775c-0.213-0.437-1.011-0.841-1.534-0.83
			c-2.942,0.063-5.88,0.258-8.78,0.404C65.554,35.226,67.769,37.404,70.538,40.127z M77.137,34.671
			c1.536-0.104,3.026-0.204,5.28-0.356c-2.225-2.769-4.378-4.555-6.822-5.92C73.917,31.116,76.404,32.587,77.137,34.671z
			 M58.113,76.906c-0.026,0.277-0.054,0.556-0.081,0.834c3.782,0.37,7.563,0.743,11.345,1.114c0.024-0.242,0.047-0.485,0.071-0.727
			C65.811,76.225,61.902,77.204,58.113,76.906z M80.291,47.256c-0.255-0.017-0.511-0.034-0.766-0.052
			c-0.261,3.902-0.52,7.803-0.78,11.704c0.266-0.002,0.532-0.005,0.798-0.007C79.793,55.019,80.043,51.138,80.291,47.256z"/>
		<path opacity="0.5" fill-rule="evenodd" clip-rule="evenodd" fill="#C43038" d="M109.753,77.086
			c-0.449,2.758-2.332,4.767-4.648,4.958c-2.313,0.191-4.784-1.698-5.387-4.413c-1.116-5.027,0.3-9.409,4.016-12.903
			c2.447-2.3,5.515-2.72,8.723-1.85c1.536,0.417,2.39,1.353,1.864,3.368c-3.937-1.502-7.265-0.792-9.926,2.841
			C108.316,70.342,110.343,73.467,109.753,77.086z M104.121,78.974c1.292,0.578,2.949-1.865,2.871-3.978
			c-0.05-1.362-0.41-2.535-2.094-2.564c-2.081-0.035-2.645,0.642-3.133,3.436C102.531,76.944,103.081,78.509,104.121,78.974z"/>
	</g>
</g>
<g>
	<defs>
		<path id="SVGID_388_" d="M-232.461-215.197c-2.397-2.386-5.115-3.59-8.189-3.59h-14.314c-3.418,0-6.572-1.101-9.462-3.326
			c-2.902-2.202-4.863-4.852-5.884-7.925l-8.189-19.945c-1.709-2.718-2.294-5.884-1.778-9.462c0.505-3.579,1.95-6.561,4.335-8.946
			l5.804-5.792c7.18-3.108,13.534-7.937,19.085-14.497c10.127-11.974,14.073-22.743,11.871-32.309
			c-2.225-9.565-8.992-17.365-20.301-23.408c-11.32-6.045-22.72-3.166-34.212,8.624c-8.671,8.889-11.481,17.628-8.442,26.207
			l-7.042,7.421c-2.397,2.386-5.459,3.831-9.21,4.347c-3.75,0.505-6.985-0.081-9.714-1.789l-19.945-8.189
			c-3.074-0.677-5.712-2.558-7.925-5.62c-2.225-3.074-3.326-6.308-3.326-9.726v-13.809c0-3.407-1.113-6.297-3.326-8.694
			c-2.225-2.386-5.035-3.579-8.441-3.579h-24.04c-3.062,0-5.792,1.193-8.177,3.579c-2.397,2.397-3.578,5.287-3.578,8.694v13.809
			c0,3.418-1.112,6.652-3.326,9.726c-2.225,3.062-4.863,4.943-7.925,5.62l-19.957,8.189c-2.729,1.709-5.872,2.294-9.462,1.789
			c-3.578-0.516-6.56-1.961-8.946-4.347l-10.231-10.23c-2.385-2.386-5.207-3.579-8.43-3.579c-3.246,0-6.067,1.193-8.441,3.579
			l-16.883,16.871c-2.386,2.397-3.578,5.207-3.578,8.441c0,3.246,1.193,6.056,3.578,8.441l10.23,10.23
			c2.386,2.386,3.831,5.368,4.347,8.946c0.516,3.579-0.092,6.744-1.789,9.462l-8.189,19.945c-0.677,3.073-2.546,5.723-5.62,7.925
			c-3.074,2.225-6.319,3.326-9.714,3.326h-13.809c-3.418,0-6.32,1.205-8.705,3.59c-2.386,2.385-3.567,5.115-3.567,8.178v24.039
			c0,3.407,1.181,6.228,3.567,8.441c2.385,2.214,5.287,3.315,8.705,3.315h13.809c3.395,0,6.64,1.113,9.714,3.326
			c3.074,2.225,4.943,4.863,5.62,7.937l8.189,19.945c1.697,2.73,2.305,5.964,1.789,9.715c-0.516,3.75-1.961,6.824-4.347,9.198
			l-10.23,9.726c-2.386,2.386-3.578,5.207-3.578,8.429c0,3.246,1.193,6.067,3.578,8.442l16.883,16.882
			c2.374,2.386,5.196,3.579,8.441,3.579c3.223,0,6.044-1.193,8.43-3.579l10.231-10.23c2.385-2.386,5.367-3.831,8.946-4.347
			c3.59-0.505,6.733,0.092,9.462,1.789l19.957,8.189c3.062,1.02,5.7,2.982,7.925,5.872c2.214,2.902,3.326,6.067,3.326,9.462v14.325
			c0,3.074,1.182,5.804,3.578,8.189c2.386,2.386,5.115,3.579,8.177,3.579h24.04c3.406,0,6.216-1.193,8.441-3.579
			c2.213-2.386,3.326-5.115,3.326-8.189v-14.325c0-3.395,1.101-6.561,3.326-9.462c2.214-2.89,4.851-4.852,7.925-5.872l19.945-8.189
			c2.729-1.697,5.964-2.294,9.714-1.789c3.75,0.516,6.813,1.961,9.21,4.347l9.714,10.23c2.386,2.386,5.196,3.579,8.441,3.579
			c3.234,0,6.044-1.193,8.441-3.579l16.883-16.882c2.374-2.374,3.567-5.196,3.567-8.442c0-3.222-1.193-6.044-3.567-8.429
			l-10.242-9.726c-2.386-2.374-3.831-5.448-4.335-9.198c-0.516-3.75,0.069-6.985,1.778-9.715l8.189-19.945
			c1.021-3.073,2.982-5.712,5.884-7.937c2.89-2.213,6.044-3.326,9.462-3.326h14.314c3.074,0,5.792-1.101,8.189-3.315
			c2.386-2.213,3.579-5.035,3.579-8.441v-24.039C-228.882-210.082-230.075-212.812-232.461-215.197z M-328.103-171.729
			c-3.074,7.156-7.341,13.384-12.788,18.672c-5.459,5.288-11.756,9.451-18.924,12.525c-7.157,3.073-14.83,4.61-23.007,4.61
			c-8.189,0-15.862-1.537-23.019-4.61c-7.157-3.074-13.476-7.237-18.924-12.525c-5.459-5.287-9.714-11.515-12.788-18.672
			c-3.074-7.157-4.599-14.83-4.599-23.019c0-8.177,1.525-15.85,4.599-23.018c3.074-7.145,7.329-13.465,12.788-18.924
			c5.448-5.448,11.768-9.714,18.924-12.777c7.157-3.073,14.83-4.61,23.019-4.61c8.177,0,15.851,1.537,23.007,4.61
			c7.168,3.063,13.465,7.329,18.924,12.777c5.448,5.46,9.715,11.779,12.788,18.924c3.062,7.168,4.599,14.841,4.599,23.018
			C-323.504-186.559-325.04-178.886-328.103-171.729z"/>
	</defs>
	<clipPath id="SVGID_3_">
		<use xlink:href="#SVGID_388_"  overflow="visible"/>
	</clipPath>
	<g clip-path="url(#SVGID_3_)">
		<radialGradient id="SVGID_5_" cx="-241.088" cy="-148.6777" r="324.3257" gradientUnits="userSpaceOnUse">
			<stop  offset="0" style="stop-color:#032319"/>
			<stop  offset="0.4346" style="stop-color:#102F24"/>
			<stop  offset="1" style="stop-color:#1C3A2F"/>
		</radialGradient>
		<path opacity="0.2" fill-rule="evenodd" clip-rule="evenodd" fill="url(#SVGID_5_)" d="M-600.076-182.172
			c4.014-21.687,6.537-43.779,12.309-64.99c21.104-77.54,63.516-136.666,144.873-159.44
			c91.234-25.534,183.941-34.833,278.186-21.487c50.096,7.097,98.332,20.422,141.106,48.792
			c53.349,35.381,95.007,79.868,108.954,144.835c8.456,39.371,8.086,79.36,6.105,119.31c-0.55,11.031,1.98,19.909,8.113,29.622
			c24.256,38.427,23.511,78.562,3.228,118.394C83.567,70.633,50.698,82.896,10.174,82.007C0.851,81.801-9.52,86.83-17.879,91.95
			c-37.393,22.907-75.802,43.196-120.766,44.563c-30.383,0.926-60.836-0.592-91.256-0.923
			c-52.984-0.569-106.012,0.215-158.935-1.852c-110.186-4.308-181.404-66.445-201.817-174.551
			c-3.944-20.862-6.323-42.018-9.422-63.042C-600.076-129.96-600.076-156.063-600.076-182.172z M-55.537,64.992
			C-67.488,22.39-79.179-20.341-81.503-64.78c-3.839-73.487,14.134-139.787,70.368-190.624
			c16.855-15.236,38.619-25.039,58.659-37.658c-5.418-13.153-9.557-15.673-27.05-14.045C-34.745-301.95-84.908-257.05-93.017-200.67
			c-9.66,67.187-17.254,134.9-13.2,202.958c1.363,22.917,7.471,45.777,13.526,68.092c3.047,11.241,10.824,21.199,16.762,32.296
			C-48.09,91.523-48.09,91.523-55.537,64.992z M-13.775-147.356c-0.753,3.822,0.917,9.304,3.466,12.394
			c17.05,20.666,22.569,44.819,22.135,70.758c-0.05,3.07-3.287,6.086-5.046,9.127c-3.142-2.995-8.3-5.562-9.039-9.067
			c-1.779-8.41-0.579-17.439-2.269-25.875c-2.073-10.372-5.858-20.399-8.899-30.574c-1.65,0.282-3.302,0.563-4.952,0.838
			c0,11.235,0.277,22.477-0.047,33.702c-1.393,47.48-0.813,94.787,8.949,141.597c1.367,6.565,3.015,10.037,10.269,9.267
			c12.926-1.387,26.244-0.901,38.787-3.814c44.058-10.22,69.761-53.936,61.897-103.183C98.412-61.377,90.828-78.152,78.281-93.23
			c-6.623-7.958-12.831-7.698-18.968-1.946c-5.619,5.272-9.392,12.467-14.334,18.522c-2.424,2.964-5.654,5.277-8.515,7.883
			c-2.662-3.488-6.998-6.674-7.673-10.514c-2.263-12.755-2.832-25.802-4.743-38.636c-3.371-22.593-11.174-43.386-28.447-63.604
			C-8.092-168.52-11.675-158.083-13.775-147.356z M-69.701-388.66c-39.097-16.255-80.09-24.231-122.084-27.096
			c-88.404-6.02-175.3,1.041-259.214,31.872c-3.604,1.327-7.102,2.939-12.201,5.066c12.852,4.562,24.023,8.61,35.271,12.442
			c1.651,0.557,3.874,0.633,5.464,0.003c32.315-12.836,66.278-18.084,100.583-20.838c67.966-5.451,135.896-6.509,203.052,8.078
			c41.206,8.949,77.868,27.23,110.944,53.792c6.467,5.194,19.209,2.579,29.053,3.567c0.251-1.306,0.511-2.608,0.76-3.918
			C-4.265-352.874-34.647-374.086-69.701-388.66z M-473.158-344.334c29.096,3.772,50.133,19.573,65.278,44.248
			c20.044,32.672,30.551,68.404,33.954,106.251c4.298,47.775,4.115,95.731-3.816,142.987
			c-11.125,66.283-58.777,109.292-129.262,120.13c-3.446,0.529-6.872,1.201-10.626,1.86c14.087,18.91,26.463,23.416,45.693,12.6
			c21.538-12.113,43.03-25.189,61.842-41.05c33.088-27.896,44.623-67.149,48.97-108.561c6.332-60.173,9.795-120.534,3.303-180.916
			c-8.536-79.314-67.749-112.564-124.591-117.813c-8.909-0.826-18.762,8.606-28.186,13.293c0.484,1.232,0.96,2.462,1.437,3.689
			C-497.154-346.547-485.096-345.88-473.158-344.334z M-518.335,54.11c5.451-0.924,10.893-1.951,16.265-3.229
			c67.944-16.14,99.133-49.142,109.497-118.292c8.004-53.384,9.998-106.999-1.051-160.331
			c-5.155-24.875-12.734-48.933-27.694-70.003c-15.924-22.433-36.905-35.271-65.126-34.446c-5.923,0.172-11.957,1.082-17.766,0.318
			c-22.575-2.982-33.795,9.909-41.912,29.984c6.002-0.946,11.206-1.827,16.427-2.586c36.996-5.398,68.268,4.715,91.264,35.109
			c33.061,43.702,43.082,94.108,40.564,147.567c-1.605,33.984-11.416,65.846-28.017,95.648
			c-21.849,39.225-55.598,59.178-99.83,62.521c-7.022,0.532-14.054,0.991-22.278,1.571
			C-537.347,56.981-536.892,57.238-518.335,54.11z M-567.73-258.486c-27.664,91.386-24.053,181.427,7.195,271.022
			c2.631,7.551,6.297,11.465,14.912,7.815c6.607-101.934-12.409-205.295,19.927-306.988
			C-549.286-285.751-561.515-279.025-567.73-258.486z M58.919-276.329c-15.406,7.887-30.441,13.814-43.535,22.618
			c-36.714,24.706-57.06,61.475-71.713,102.006C-74.701-100.914-69.901-49.75-58.185,1.301c5.995,26.132,13.527,51.903,20.474,78.25
			c11.58-3.637,16.108-8.565,15.022-21.405c-4.511-53.501-8.018-107.113-10.37-160.751c-0.887-20.357,0.245-41.306,4.121-61.272
			c8.983-46.287,42.594-75.391,89.161-80.318c2.722-0.287,5.417-0.806,10.475-1.573C66.791-255.9,63.453-264.559,58.919-276.329z
			 M-276.379-266.802c-16.596,0.942-30.927,11.643-35.654,26.867c-4.797,15.463,2.501,27.068,13.593,36.445
			c26.002,21.984,57.059,31.193,90.341,34.265c1.164,0.106,2.515,0.212,3.515-0.258c5.49-2.546,10.898-5.279,16.341-7.941
			c-2.883-4.834-4.944-10.49-8.809-14.331c-8.658-8.593-18.639-15.857-27.174-24.565c-3.129-3.182-3.678-8.893-5.409-13.448
			c4.353-1.045,8.7-2.96,13.054-2.971c12.229-0.026,24.457,1.055,36.684,1.028c5.014-0.013,10.63-0.65,14.84-3.012
			c3.571-2.002,7.031-6.687,7.592-10.6c0.323-2.28-4.69-6.618-8.109-7.924c-29.175-11.162-59.711-14.179-90.688-13.616
			C-262.968-266.862-269.693-267.181-276.379-266.802z M-452.573-19.491c1.825-2.365,1.715-6.572,1.724-9.928
			c0.122-44.222-1.101-88.484,0.626-132.637c0.887-22.672,6.035-45.356,11.165-67.596c2.302-9.974,1.532-17.597-4.8-24.925
			c-6.31-7.303-12.879-14.37-21.617-24.086c-17.277,97.923-25.681,192.763-27.362,290.158
			C-475.065,4.554-462.766-6.241-452.573-19.491z M-350.847-31.083c-0.275,2.587,2.244,7.048,4.607,8.077
			c20.23,8.802,40.453,17.755,61.267,24.978c6.946,2.409,15.582-0.214,23.448-0.274c21.345-0.157,42.823-1.663,63.977,0.311
			c12.822,1.194,25.583,6.874,37.552,12.345c13.084,5.971,25.447,12.682,40.784,6.568c0.99-12.744-2.502-22.191-14.4-30.206
			c-34.1-22.972-71.719-31.648-112.075-32.682c-21.641-0.56-43.385-1.791-64.807-4.746c-11.835-1.633-23.098-7.435-35.571-11.683
			C-347.716-49.501-349.869-40.353-350.847-31.083z M-375.681-344.945c44.009-12.1,89.237-9.678,134.243-7.544
			c49.419,2.341,98.522,7.075,145.096,25.497c13.916,5.503,27.71,11.576,40.826,18.745c7.447,4.062,13.14,5.09,20.235,0
			c4.644-3.331,10.297-5.244,16.451-8.262c-30.505-25.391-64.923-40.177-102.405-48.367
			c-55.356-12.095-111.539-11.862-167.499-8.005c-34.871,2.404-69.405,9.691-104.062,14.947c-3.712,0.567-7.258,2.218-11.284,3.489
			C-396.397-344.002-388.58-341.399-375.681-344.945z M-508.778-289.634c-27.358,102.568-20.935,205.709-20.095,309.069
			c3.395,0,6.102,0.296,8.712-0.075c3.863-0.552,7.654-1.588,12.288-2.597c0.77-101.232,9.961-201.398,27.041-302.257
			C-491.636-287.095-501.199-288.507-508.778-289.634z M-159.78-163.956c-7.792,2.426-14.8,4.776-21.904,6.776
			c-4.905,1.374-9.955,3.278-14.924,3.227c-38.135-0.405-73.699-9.453-103.722-34.168c-22.88-18.836-37.71-40.864-21.278-73.471
			c-8.624,1.354-15.433,2.427-21.259,3.344c1.131,27.414,2.161,53.788,3.405,80.148c0.099,2.09,1.095,4.919,2.653,6.045
			c27.703,19.949,52.719,45.348,89.354,48.251c24.728,1.97,49.579,2.331,74.378,3.437c3.931,0.175,7.866,0.47,13.298,0.794
			C-159.78-134.516-159.78-148.554-159.78-163.956z M-57.405-295.751c-103.102-46.541-209.124-48.993-320.374-33.846
			c5.347,7.924,8.881,12.113,11.223,16.885c3.189,6.487,7.387,7.451,14.26,6.16c40.004-7.52,80.136-13.825,121.155-11.459
			c56.867,3.287,100.149,19.085,145.044,53.875C-76.666-274.528-67.983-284.093-57.405-295.751z M-118.718,70.092
			c-44.968,1.009-89.98,2.382-134.916,1.276c-19.886-0.492-39.802-5.813-59.404-10.261c-22.655-5.142-43.174-15.142-60.016-32.331
			c-7.91,9.387-15.458,18.344-23.009,27.306c48.677,43.042,202.786,56.672,292.616,25.769
			C-104.08,70.967-109.901,69.891-118.718,70.092z M-366.632,17.522c21.749,23.83,51.572,29.073,81.47,35.041
			c55.913,11.168,111.817,5.464,167.784,1.589c1.1-0.072,2.164-0.712,4.441-1.503c-0.963-4.443-1.929-8.879-2.479-11.419
			c-23.539,0-45.988,0.044-68.433-0.017c-24.783-0.061-48.533-5.14-71.697-13.951C-288.637,14.684-321.96,2.711-355.69-9.702
			C-358.869-1.789-362.667,7.658-366.632,17.522z M-103.887,100.286c-65.664,15.413-131.779,20.155-198.484,7.212
			c-34.367-6.674-66.996-18.225-97.034-36.335c-6.282-3.793-10.147-3.868-16.457,0.458c-16.12,11.042-33.153,20.76-50.377,31.349
			c21.884,10.23,45.446,15.549,69.366,15.727c87.663,0.664,175.34,0.458,263.001-0.425c14.931-0.149,29.814-5.2,44.816-8
			C-90.848,98.467-96.278,98.5-103.887,100.286z M-348.943-275.011c87.257-11.62,173.107-19.41,245.719,44.843
			c0.516-0.396,1.335-0.708,1.58-1.269c9.939-22.464,9.955-22.506-10.303-37.456c-33.241-24.526-71.848-34.043-111.756-33.029
			c-42.084,1.066-84.032,7.574-126.028,11.776c-1.046,0.102-2.006,1.036-3.856,2.049
			C-352.033-283.714-350.514-279.423-348.943-275.011z M-342.467-96.175c-2.651,24.206-2.067,26.634,22.208,32.238
			c17.1,3.95,35.152,6.36,52.626,5.656c52.121-2.097,100.49,7.32,142.871,39.513c0.505,0.384,1.48,0.145,2.238,0.194
			c3.947-20.997,3.245-21.886-13.666-33.36c-21.822-14.801-45.788-20.383-71.844-18.832c-23.329,1.384-46.84,1.835-68.847-7.237
			c-17.355-7.15-33.922-16.25-50.768-24.614c-4.121-2.042-7.973-4.621-13.207-7.696
			C-341.514-104.517-342.012-100.348-342.467-96.175z M-339.808-154.225c-2.788,27.69,1.272,33.092,27.992,46.213
			c33.052,16.231,68.042,21.095,104.248,21.728c15.995,0.279,31.958,2.445,48.662,3.814c0-5.618,0-12.818,0-22.387
			c-17.573,0-34.373,0.147-51.166-0.027c-33.278-0.348-64.924-8.432-94.169-23.747c-12.574-6.581-22.797-17.646-34.593-27.083
			C-339.389-154.883-339.774-154.572-339.808-154.225z M-436.086-47.675c24-32.08,33.653-118.563,9.813-168.78
			C-440.552-159.549-438.215-103.791-436.086-47.675z M57.397-137.211c-3.405-22.282-9.383-43.144-26.16-59.354
			c-13.997-13.52-15.706-13.25-27.5,4.32c21.975,24.68,33.302,54.422,36.616,87.04C57.956-110.176,59.695-122.171,57.397-137.211z
			 M75.074-114.753c3.366-38.088,5.904-75.893-1.749-115.906c-15.494,4.081-29.692,7.814-43.884,11.557
			c-0.235,1.168-0.473,2.33-0.708,3.497C62.578-190.341,71.493-153.847,75.074-114.753z M-134.745-135.965
			c0.713-12.993,5.746-24.438,17.614-33.17c5.002-3.682,4.958-14.223,7.399-22.256c-19.477-0.3-29.681,7.429-31.92,25.306
			c-2.245,17.91-2.572,36.096-3.001,54.175c-0.265,11.375,0.615,22.794,1.447,34.167c0.217,2.923,2.182,5.721,3.351,8.579
			c1.592-0.325,3.189-0.652,4.781-0.972C-135.074-92.083-135.939-114.081-134.745-135.965z M-166.87-178.668
			c10.492,1.85,14.897-10.86,20.309-20.455c1.871-3.317-1.268-10.202-3.51-14.782c-1.136-2.326-5.382-4.482-8.171-4.424
			c-15.673,0.337-31.319,1.373-46.767,2.155C-193.419-204.776-181.62-193.177-166.87-178.668z M-131.72-207.731
			c8.181-0.557,16.117-1.089,28.126-1.895c-11.854-14.751-23.318-24.262-36.339-31.531
			C-148.869-226.672-135.625-218.836-131.72-207.731z M-233.052,17.243c-0.141,1.475-0.285,2.961-0.431,4.442
			c20.145,1.974,40.286,3.96,60.432,5.936c0.126-1.29,0.253-2.581,0.38-3.87C-192.049,13.617-212.871,18.829-233.052,17.243z
			 M-114.915-140.697c-1.36-0.091-2.722-0.183-4.079-0.278c-1.388,20.783-2.769,41.562-4.152,62.346
			c1.416-0.013,2.833-0.025,4.253-0.037C-117.568-99.344-116.239-120.018-114.915-140.697z"/>
		<radialGradient id="SVGID_7_" cx="26.8829" cy="-7.5182" r="46.6307" gradientUnits="userSpaceOnUse">
			<stop  offset="0" style="stop-color:#032319"/>
			<stop  offset="0.4346" style="stop-color:#102F24"/>
			<stop  offset="1" style="stop-color:#1C3A2F"/>
		</radialGradient>
		<path opacity="0.2" fill-rule="evenodd" clip-rule="evenodd" fill="url(#SVGID_7_)" d="M42.021,18.203
			c-2.393,14.689-12.421,25.39-24.757,26.41C4.944,45.63-8.22,35.57-11.434,21.104C-17.38-5.672-9.837-29.018,9.958-47.63
			c13.037-12.253,29.377-14.49,46.463-9.853c8.181,2.222,12.733,7.208,9.928,17.943c-20.972-7.999-38.699-4.218-52.872,15.133
			C34.369-17.722,45.162-1.076,42.021,18.203z M12.017,28.256c6.882,3.078,15.709-9.935,15.292-21.19
			C27.041-0.187,25.124-6.438,16.154-6.589C5.072-6.779,2.067-3.171-0.535,11.712C3.549,17.447,6.478,25.781,12.017,28.256z"/>
	</g>
</g>
</svg>
