<?xml version="1.0" encoding="utf-8"?>
<!-- Generator: Adobe Illustrator 19.1.0, SVG Export Plug-In . SVG Version: 6.00 Build 0)  -->
<svg version="1.1" id="Capa_1" xmlns="http://www.w3.org/2000/svg" xmlns:xlink="http://www.w3.org/1999/xlink" x="0px" y="0px"
	 viewBox="0 0 406.9 280" enable-background="new 0 0 406.9 280" xml:space="preserve">
<path fill="#FFFFFF" d="M270.4,190H161.9c-13.2,0-25-11.6-25-24v-0.7c0-12.4,11.8-22.3,25-22.3h108.5c12.1,0,19.5,9.1,19.5,22.3v0.7
	C289.9,179.3,282.5,190,270.4,190z M161.9,145c-11.9,0-23,9.2-23,20.3v0.7c0,11.1,11,22,23,22h108.5c11,0,17.5-9.9,17.5-22v-0.7
	c0-12.3-6.4-20.3-17.5-20.3H161.9z"/>
<g>
	<path fill="#FFA900" d="M281.9,148.5c0,3.1-2.5,5.5-5.5,5.5H154.5c-3.1,0-5.5-2.5-5.5-5.5v-43.9c0-3.1,2.5-5.5,5.5-5.5h121.9
		c3.1,0,5.5,2.5,5.5,5.5V148.5z"/>
</g>
<g>
	<path fill="#FFA900" d="M278.9,66c3.1,0,4.1,1.7,4.1,4.8v62.3c0,3.1-1,6.9-4.1,6.9H218c-3.1,0-5.5-3.2-5.5-6.2l8.3-62.2
		c0-3.1,2.5-5.5,5.5-5.5H278.9z"/>
</g>
<path fill="#333333" d="M290.3,172.3c0.4-2,0.6-4.3,0.6-6.3h-2v-0.7c0-0.2,0-0.4,0-0.7l2,0c0-2.2-0.3-4.4-0.7-6.4l-2,0.4
	c-0.5-2-1.1-3.9-2.1-5.6l1.8-0.9c-1.1-2-2.5-3.8-4.1-5.3l-1.4,1.5c-1.5-1.3-3.1-2.4-5.1-3.1l0.7-1.9c-2-0.8-4.2-1.2-6.5-1.3l-0.1,2
	c-0.4,0-0.8-0.1-1.2-0.1h-4.5v-2h-6v2h-6v-2h-6v2h-6v-2h-6v2h-6v-2h-6v2h-6v-2h-6v2h-6v-2h-6v2h-6v-2h-6v2h-6v-2h-6v2h-6v-2h-6v2h-2
	c-1.4,0-2.9,0.1-4.3,0.4l-0.3-2c-2.1,0.4-4.2,1-6.2,1.8l0.8,1.8c-1.9,0.8-3.6,1.8-5.2,3l-1.2-1.6c-1.8,1.3-3.4,2.8-4.7,4.5l1.6,1.3
	c-1.3,1.6-2.3,3.3-3,5.1l-1.9-0.8c-0.8,2.1-1.3,4.2-1.5,6.4l2,0.1c0,0.4,0,0.8,0,1.2v0.7c0,1.4,0.2,2.7,0.4,4.1l-2,0.4
	c0.5,2.1,1.2,4.2,2.3,6.1l1.8-0.9c0.9,1.7,2.1,3.4,3.5,4.9l-1.5,1.3c1.4,1.6,3.1,3,4.8,4.3l1.1-1.6c1.6,1.1,3.4,2.1,5.3,2.8
	l-0.7,1.9c2.1,0.8,4.2,1.4,6.3,1.6l0.2-2c0.8,0.1,1.6,0.1,2.4,0.1h4v2h6v-2h6v2h6v-2h6v2h6v-2h6v2h6v-2h6v2h6v-2h6v2h6v-2h6v2h6v-2
	h6v2h6v-2h6v2h6v-2h2.5c1.1,0,2.1-0.1,3.1-0.3l0.3,2c2.3-0.4,4.4-1.1,6.3-2.3l-1-1.7c1.7-1,3.2-2.3,4.5-3.9l1.5,1.3
	c1.3-1.6,2.5-3.5,3.4-5.6l-1.8-0.8c0.8-1.8,1.3-3.7,1.7-5.8L290.3,172.3z"/>
<g>
	<polygon fill="#FFA900" points="172.6,65.3 166.8,67.8 170.9,75.4 170.9,107 176.9,107 176.9,74.1 	"/>
</g>
<g>
	<g>
		<rect x="188.9" y="92" fill="#FFA900" width="11" height="12"/>
	</g>
</g>
<g>
	<g>
		<path fill="#FFFFFF" d="M176.2,110.6h-17.4c-0.5,0-1-0.4-1-1v-1c0-0.5,0.4-1,1-1h17.4c0.5,0,1,0.4,1,1v1
			C177.2,110.2,176.8,110.6,176.2,110.6z"/>
	</g>
	<g>
		<path fill="#FFFFFF" d="M176.2,115.4h-17.4c-0.5,0-1-0.4-1-1v0c0-0.5,0.4-1,1-1h17.4c0.5,0,1,0.4,1,1v0
			C177.2,115,176.8,115.4,176.2,115.4z"/>
	</g>
	<g>
		<path fill="#FFFFFF" d="M176.2,121.2h-17.4c-0.5,0-1-0.4-1-1v-1c0-0.5,0.4-1,1-1h17.4c0.5,0,1,0.4,1,1v1
			C177.2,120.8,176.8,121.2,176.2,121.2z"/>
	</g>
</g>
<g>
	<rect x="266.9" y="82" fill="#FFFFFF" width="16" height="41"/>
</g>
<g>
	<rect x="268.9" y="85" fill="#333333" width="13" height="35"/>
</g>
<g>
	<path fill="#333333" d="M251.4,136.7h-27.7c-3,0-5.4-2.7-5-5.7l7-53.7c0.3-2.5,2.5-4.4,5-4.4h20.7c2.8,0,5,2.2,5,5v53.7
		C256.4,134.4,254.2,136.7,251.4,136.7z"/>
	<path fill="#FFFFFF" d="M256.9,138h-40l8.6-66h31.5V138z M224.5,135.7h31V79.8c0-3.3-2.6-5.9-5.9-5.9h-22.4l-7.4,56.5
		C219.4,133.2,221.6,135.7,224.5,135.7z"/>
</g>
<path fill="#282828" d="M264.8,149H167c-11.9,0-22.1,7.5-22.1,16.3v0.5c0,8.8,10.2,16.2,22.1,16.2h97.8c10.9,0,18.1-6.8,18.1-16.2
	v-0.5C282.9,155.9,275.7,149,264.8,149z"/>
<path fill="#262626" d="M130.7,120h-19.1c-0.3,0-0.6,0.6-0.6,0.9l-6.5,47.5l-24.5,19c-0.2,0.2-0.3,0.6-0.2,0.9
	c0.1,0.3,0.3,0.7,0.6,0.7H121c0.2,0,0.6-0.4,0.7-0.6l9.9-18.9c0-0.1,0.4-0.2,0.4-0.3v-47.9C131.9,120.9,131,120,130.7,120z"/>
<g>
	<polygon fill="#262626" points="200,129.7 124.6,156.6 119.8,140.8 196.3,119.3 	"/>
</g>
<circle fill="#262626" cx="198.2" cy="124.6" r="7.2"/>
</svg>
