<?xml version="1.0" encoding="utf-8"?>
<svg viewBox="0 0 431 213" xmlns="http://www.w3.org/2000/svg">
  <g transform="matrix(0.1, 0, 0, -0.1, 0, 213)" fill="#000000" stroke="none">
    <path d="M1830 2025 c-13 -14 -21 -27 -18 -30 2 -3 17 9 33 25 16 17 24 30 19 30 -6 0 -21 -11 -34 -25z"/>
    <path d="M1397 2006 c-20 -18 -37 -37 -37 -42 0 -4 15 6 33 24 18 18 41 32 51 32 10 0 57 -39 105 -87 218 -220 339 -334 345 -325 3 5 -4 19 -15 31 -22 24 -18 41 12 41 17 0 19 7 19 65 l0 65 -35 0 -35 0 0 -61 c0 -33 -4 -59 -9 -57 -17 6 -131 117 -131 128 0 5 33 42 73 80 50 49 80 70 97 70 18 0 53 -27 124 -96 55 -53 142 -135 195 -183 53 -48 125 -116 160 -149 61 -59 63 -63 47 -81 -25 -27 -1 -43 51 -33 l40 7 -96 89 c-53 50 -164 154 -246 233 -222 210 -258 243 -275 243 -8 0 -53 -36 -99 -81 -46 -44 -85 -78 -87 -76 -10 9 9 36 47 66 21 18 39 37 39 44 0 6 -24 -13 -54 -42 -30 -29 -59 -52 -65 -50 -6 2 -51 43 -100 92 -50 48 -96 87 -104 87 -7 0 -30 -15 -50 -34z" style="fill: rgb(14, 101, 242);"/>
    <path d="M1924 1991 c28 -28 52 -48 55 -46 6 7 -58 74 -84 87 -11 6 2 -13 29 -41z"/>
    <path d="M1363 1909 c-264 -250 -303 -289 -303 -298 0 -7 22 -11 54 -11 40 0 55 4 60 16 11 27 7 34 -20 34 -14 0 -24 4 -22 9 5 16 312 291 323 291 6 0 58 -45 116 -100 57 -55 108 -100 113 -100 9 0 -211 233 -225 238 -5 2 -48 -34 -96 -79z" style="fill: rgb(14, 101, 242);"/>
    <path d="M1285 1900 c-16 -16 -26 -32 -24 -35 3 -2 21 11 39 30 19 19 29 35 24 35 -6 0 -23 -13 -39 -30z"/>
    <path d="M2014 1911 c21 -23 26 -26 26 -11 0 5 -10 15 -22 21 -23 12 -23 12 -4 -10z"/>
    <path d="M1181 1803 c-26 -27 -77 -76 -115 -111 -37 -35 -65 -66 -62 -69 7 -8 236 209 236 223 0 12 -18 -1 -59 -43z"/>
    <path d="M2111 1823 c13 -16 63 -63 112 -105 11 -10 23 -18 26 -18 9 0 -133 139 -143 140 -5 0 -2 -8 5 -17z"/>
    <path d="M1420 1700 c0 -39 1 -40 35 -40 34 0 35 1 35 40 0 39 -1 40 -35 40 -34 0 -35 -1 -35 -40z" style="fill: rgba(14, 101, 242, 0.51);"/>
    <path d="M1715 1720 c10 -11 20 -20 23 -20 3 0 -3 9 -13 20 -10 11 -20 20 -23 20 -3 0 3 -9 13 -20z"/>
    <path d="M1739 1650 c-21 -17 -22 -21 -9 -30 17 -11 73 -13 83 -3 7 7 -31 53 -44 53 -4 0 -17 -9 -30 -20z" style="fill: rgba(14, 101, 242, 0.53);"/>
    <path d="M2292 1652 c7 -10 68 -68 134 -130 l122 -112 267 0 c200 0 266 3 263 12 -5 15 -2 13 -213 114 -296 141 -272 134 -440 134 -139 0 -145 -1 -133 -18z" style="fill: rgba(14, 101, 242, 0.51);"/>
    <path d="M1010 1561 c0 -5 10 -15 22 -23 21 -14 20 -15 -23 -40 -24 -14 -68 -38 -96 -53 l-52 -28 -62 22 c-33 13 -62 21 -65 19 -2 -2 66 -73 151 -158 85 -84 157 -151 159 -149 3 2 9 81 15 174 13 203 16 215 46 215 32 0 56 10 49 21 -7 12 -144 12 -144 0z" style="fill: rgba(14, 101, 242, 0.55);"/>
    <path d="M3459 1472 c-13 -10 -71 -51 -129 -91 l-106 -71 -64 26 c-36 14 -69 30 -75 35 -5 5 -13 9 -17 9 -11 0 -10 -231 1 -248 6 -10 22 -12 64 -7 l55 7 133 156 c184 215 192 226 138 184z" style="fill: rgba(14, 101, 242, 0.54);"/>
    <path d="M1320 1350 l0 -131 138 3 137 3 0 125 0 125 -137 3 -138 3 0 -131z" style="fill: rgba(14, 101, 242, 0.51);"/>
    <path d="M3490 1419 c-11 -19 -10 -20 9 -9 22 11 14 18 220 -175 89 -82 111 -107 105 -116 -3 -5 -12 -9 -20 -9 -17 0 -18 -12 -2 -28 13 -13 108 -17 108 -4 0 14 -381 361 -397 362 -7 0 -17 -9 -23 -21z" style="fill: rgb(14, 101, 242);"/>
    <path d="M573 1322 c-65 -60 -150 -138 -190 -173 -39 -35 -73 -69 -76 -76 -4 -8 9 -14 39 -19 36 -5 49 -3 62 10 16 16 15 18 -6 34 l-23 18 113 105 c181 169 194 180 212 173 20 -8 21 9 1 26 -11 10 -35 -8 -132 -98z" style="fill: rgb(14, 101, 242);"/>
    <path d="M2030 1273 c0 -109 -10 -103 162 -103 l149 0 -3 78 -3 77 -152 3 -153 3 0 -58z" style="fill: rgba(14, 101, 242, 0.51);"/>
    <path d="M2561 1316 c-7 -9 -11 -39 -9 -78 3 -61 4 -63 31 -66 l28 -3 -3 78 c-2 62 -6 78 -19 81 -9 1 -21 -4 -28 -12z" style="fill: rgba(14, 101, 242, 0.53);"/>
    <path d="M2850 1245 l0 -85 30 0 30 0 0 85 0 85 -30 0 -30 0 0 -85z" style="fill: rgba(14, 101, 242, 0.54);"/>
    <path d="M3755 1270 c10 -11 20 -20 23 -20 3 0 -3 9 -13 20 -10 11 -20 20 -23 20 -3 0 3 -9 13 -20z"/>
    <path d="M450 1260 c-8 -5 -12 -12 -9 -15 4 -3 12 1 19 10 14 17 11 19 -10 5z"/>
    <path d="M3500 1205 c0 -45 0 -45 35 -45 35 0 35 0 35 45 0 45 0 45 -35 45 -35 0 -35 0 -35 -45z" style="fill: rgba(14, 101, 242, 0.5);"/>
    <path d="M670 1160 c0 -23 5 -31 24 -36 34 -8 46 2 46 37 0 27 -3 29 -35 29 -32 0 -35 -2 -35 -30z" style="fill: rgba(14, 101, 242, 0.52);"/>
    <path d="M346 1165 c-11 -8 -15 -15 -9 -15 6 0 16 7 23 15 16 19 11 19 -14 0z"/>
    <path d="M258 1085 c-28 -24 -36 -45 -18 -45 6 0 10 5 10 11 0 7 10 20 22 30 11 11 19 21 17 23 -2 2 -16 -6 -31 -19z"/>
    <path d="M3960 1075 c7 -9 15 -13 17 -11 7 7 -7 26 -19 26 -6 0 -6 -6 2 -15z"/>
    <path d="M2483 850 c-155 -23 -254 -136 -270 -306 -11 -118 24 -230 94 -300 123 -124 412 -118 520 11 15 16 38 55 52 85 22 48 26 68 26 165 0 105 -2 114 -33 177 -38 77 -84 120 -157 147 -61 23 -162 32 -232 21z m177 -185 c39 -38 53 -92 48 -186 -7 -125 -47 -169 -153 -169 -46 0 -59 5 -89 31 -41 35 -56 79 -56 163 0 82 17 132 58 168 33 28 39 30 98 26 54 -3 68 -9 94 -33z" style="fill: rgb(29, 79, 206);"/>
    <path d="M320 505 l0 -345 100 0 100 0 0 345 0 345 -100 0 -100 0 0 -345z" style="fill: rgb(29, 79, 206);"/>
    <path d="M1010 505 l0 -345 80 0 80 0 0 263 c0 150 4 256 9 248 5 -7 37 -125 72 -262 l63 -249 72 0 71 0 31 118 c17 64 47 181 68 260 20 78 41 142 45 142 5 0 9 -117 9 -260 l0 -260 80 0 80 0 0 345 0 345 -133 0 -134 0 -53 -207 c-29 -115 -55 -210 -57 -212 -8 -11 -18 19 -60 176 -24 92 -48 185 -54 206 l-10 37 -129 0 -130 0 0 -345z" style="fill: rgb(29, 79, 206);"/>
    <path d="M3323 838 c2 -7 48 -79 101 -160 53 -81 96 -152 96 -158 0 -5 -52 -88 -115 -185 l-114 -175 112 0 112 0 65 110 c35 61 69 110 75 110 5 0 39 -48 74 -106 36 -58 70 -108 76 -110 6 -3 57 -3 113 -2 l102 3 -40 60 c-22 33 -74 112 -116 177 l-75 116 84 129 c45 70 93 145 106 166 l23 37 -109 0 -108 0 -59 -106 c-32 -58 -63 -103 -68 -102 -6 2 -37 49 -68 103 l-58 100 -107 3 c-84 2 -106 0 -102 -10z" style="fill: rgb(29, 79, 206);"/>
  </g>
</svg>