<?xml version="1.0" encoding="UTF-8" standalone="no"?>
<!-- Generator: Adobe Illustrator 19.1.0, SVG Export Plug-In . SVG Version: 6.00 Build 0)  -->

<svg
   xmlns:osb="http://www.openswatchbook.org/uri/2009/osb"
   xmlns:dc="http://purl.org/dc/elements/1.1/"
   xmlns:cc="http://creativecommons.org/ns#"
   xmlns:rdf="http://www.w3.org/1999/02/22-rdf-syntax-ns#"
   xmlns:svg="http://www.w3.org/2000/svg"
   xmlns="http://www.w3.org/2000/svg"
   xmlns:sodipodi="http://sodipodi.sourceforge.net/DTD/sodipodi-0.dtd"
   xmlns:inkscape="http://www.inkscape.org/namespaces/inkscape"
   version="1.1"
   id="Capa_1"
   x="0px"
   y="0px"
   viewBox="0 0 41.200001 46.537384"
   xml:space="preserve"
   inkscape:version="0.91 r13725"
   sodipodi:docname="logo-kajool.svg"
   width="41.200001"
   height="46.537384"><metadata
     id="metadata3397"><rdf:RDF><cc:Work
         rdf:about=""><dc:format>image/svg+xml</dc:format><dc:type
           rdf:resource="http://purl.org/dc/dcmitype/StillImage" /><dc:title></dc:title></cc:Work></rdf:RDF></metadata><defs
     id="defs3395"><linearGradient
       id="linearGradient5689"
       osb:paint="solid"><stop
         style="stop-color:#000000;stop-opacity:1;"
         offset="0"
         id="stop5691" /></linearGradient></defs><sodipodi:namedview
     pagecolor="#ffffff"
     bordercolor="#666666"
     borderopacity="1"
     objecttolerance="10"
     gridtolerance="10"
     guidetolerance="10"
     inkscape:pageopacity="0"
     inkscape:pageshadow="2"
     inkscape:window-width="1920"
     inkscape:window-height="1017"
     id="namedview3393"
     showgrid="false"
     inkscape:zoom="9.6363636"
     inkscape:cx="20.184906"
     inkscape:cy="4.3050144"
     inkscape:window-x="1358"
     inkscape:window-y="-8"
     inkscape:window-maximized="1"
     inkscape:current-layer="g3339"
     fit-margin-top="0"
     fit-margin-left="0"
     fit-margin-right="0"
     fit-margin-bottom="0" /><style
     type="text/css"
     id="style3337">
	.st0{fill:#5A5B5E;}
	.st1{fill:#2992C5;}
</style><g
     id="g3339"
     transform="translate(-4.145283,-2.5992896)"><g
       id="g3355"
       transform="translate(-15.254717,-7.7830189)"><path
         class="st1"
         d="m 33.6,36 0,-5.7 c 0,-0.3 -0.1,-0.5 -0.4,-0.6 l -4.9,-2.8 c -0.5,-0.3 -1.1,0.1 -1.1,0.6 l 0,5.7 c 0,0.3 0.1,0.5 0.4,0.6 l 4.9,2.8 c 0.5,0.4 1.1,0 1.1,-0.6 z"
         id="path3357"
         inkscape:connector-curvature="0"
         style="fill:#2992c5" /><path
         class="st0"
         d="m 28.3,25.6 4.9,-2.9 c 0.2,-0.1 0.5,-0.1 0.8,0 l 4.9,2.9 c 0.5,0.3 0.5,1 0,1.3 L 34,29.7 c -0.2,0.1 -0.5,0.1 -0.8,0 l -4.9,-2.9 c -0.5,-0.2 -0.5,-0.9 0,-1.2 z"
         id="path3359"
         inkscape:connector-curvature="0"
         style="fill:#5a5b5e" /><path
         class="st1"
         d="m 46.4,36 0,-5.7 c 0,-0.3 0.1,-0.5 0.4,-0.6 l 4.9,-2.8 c 0.5,-0.3 1.1,0.1 1.1,0.6 l 0,5.7 c 0,0.3 -0.1,0.5 -0.4,0.6 l -4.9,2.8 c -0.4,0.4 -1.1,0 -1.1,-0.6 z"
         id="path3361"
         inkscape:connector-curvature="0"
         style="fill:#2992c5" /><path
         class="st0"
         d="m 51.8,25.6 -4.9,-2.9 c -0.2,-0.1 -0.5,-0.1 -0.8,0 l -4.9,2.9 c -0.5,0.3 -0.5,1 0,1.3 l 4.9,2.9 c 0.2,0.1 0.5,0.1 0.8,0 l 4.9,-2.9 c 0.5,-0.3 0.5,-1 0,-1.3 z"
         id="path3363"
         inkscape:connector-curvature="0"
         style="fill:#5a5b5e" /><path
         class="st0"
         d="m 45.3,38 -4.9,2.9 C 40.2,41 40,41.3 40,41.6 l 0,5.7 c 0,0.6 0.6,0.9 1.1,0.6 L 46,45.1 c 0.2,-0.1 0.4,-0.4 0.4,-0.6 l 0,-5.7 C 46.4,38 45.7,37.7 45.3,38 Z"
         id="path3365"
         inkscape:connector-curvature="0"
         style="fill:#5a5b5e" /><path
         class="st1"
         d="m 38.9,47.8 -5,-2.8 c -0.2,-0.1 -0.4,-0.4 -0.4,-0.7 l 0,-5.7 c 0,-0.6 0.6,-0.9 1.1,-0.6 l 5,2.8 c 0.2,0.1 0.4,0.4 0.4,0.6 l 0,5.7 c 0,0.6 -0.6,1 -1.1,0.7 z"
         id="path3367"
         inkscape:connector-curvature="0"
         style="fill:#2992c5" /><path
         class="st1"
         d="m 54.1,31.6 0,-5.7 c 0,-0.3 0.1,-0.5 0.4,-0.6 l 4.9,-2.8 c 0.5,-0.3 1.1,0.1 1.1,0.6 l 0,5.7 c 0,0.3 -0.1,0.5 -0.4,0.6 l -4.9,2.8 c -0.4,0.3 -1.1,0 -1.1,-0.6 z"
         id="path3369"
         inkscape:connector-curvature="0"
         style="fill:#2992c5" /><path
         class="st0"
         d="m 59.5,21.1 -4.9,-2.9 c -0.2,-0.1 -0.5,-0.1 -0.8,0 l -4.9,2.9 c -0.5,0.3 -0.5,1 0,1.3 l 4.9,2.9 c 0.2,0.1 0.5,0.1 0.8,0 l 4.9,-2.9 c 0.4,-0.2 0.4,-1 0,-1.3 z"
         id="path3371"
         inkscape:connector-curvature="0"
         style="fill:#5a5b5e" /><path
         class="st1"
         d="m 25.9,31.6 0,-5.7 c 0,-0.3 -0.1,-0.5 -0.4,-0.6 l -4.9,-2.8 c -0.5,-0.3 -1.1,0.1 -1.1,0.6 l 0,5.7 c 0,0.3 0.1,0.5 0.4,0.6 l 4.9,2.8 c 0.4,0.4 1.1,0 1.1,-0.6 z"
         id="path3373"
         inkscape:connector-curvature="0"
         style="fill:#2992c5" /><path
         class="st0"
         d="m 20.5,21.2 4.9,-2.9 c 0.2,-0.1 0.5,-0.1 0.8,0 l 4.9,2.9 c 0.5,0.3 0.5,1 0,1.3 l -4.9,2.9 c -0.2,0.1 -0.5,0.1 -0.8,0 l -4.9,-2.9 c -0.4,-0.3 -0.4,-1 0,-1.3 z"
         id="path3375"
         inkscape:connector-curvature="0"
         style="fill:#5a5b5e" /><path
         class="st1"
         d="m 34.6,47 4.9,2.8 c 0.2,0.1 0.4,0.4 0.4,0.7 l 0,5.7 c 0,0.6 -0.6,0.9 -1.1,0.6 L 33.9,54 c -0.2,-0.1 -0.4,-0.4 -0.4,-0.6 l 0,-5.7 c 0,-0.6 0.6,-1 1.1,-0.7 z"
         id="path3377"
         inkscape:connector-curvature="0"
         style="fill:#2992c5" /><path
         class="st0"
         d="M 41,56.8 46,54 c 0.2,-0.1 0.4,-0.4 0.4,-0.7 l 0,-5.7 C 46.4,47 45.8,46.7 45.3,47 l -4.9,2.9 C 40.2,50 40,50.3 40,50.6 l 0,5.7 c -0.1,0.5 0.5,0.8 1,0.5 z"
         id="path3379"
         inkscape:connector-curvature="0"
         style="fill:#5a5b5e" /><path
         class="st0"
         d="m 25.8,35.9 0,5.7 c 0,0.3 -0.1,0.5 -0.4,0.6 L 20.5,45 C 20,45.3 19.4,44.9 19.4,44.4 l 0,-5.7 c 0,-0.3 0.1,-0.5 0.4,-0.6 l 4.9,-2.8 c 0.5,-0.3 1.1,0.1 1.1,0.6 z"
         id="path3381"
         inkscape:connector-curvature="0"
         style="fill:#5a5b5e" /><path
         class="st1"
         d="m 20.5,46.4 4.9,2.9 c 0.2,0.1 0.5,0.1 0.8,0 l 4.9,-2.9 c 0.5,-0.3 0.5,-1 0,-1.3 l -4.9,-2.9 c -0.2,-0.1 -0.5,-0.1 -0.8,0 l -4.9,2.9 c -0.5,0.3 -0.5,1 0,1.3 z"
         id="path3383"
         inkscape:connector-curvature="0"
         style="fill:#2992c5" /><path
         class="st1"
         d="m 48.9,44.9 4.9,-2.8 c 0.2,-0.1 0.5,-0.1 0.8,0 l 4.9,2.9 c 0.5,0.3 0.5,1 0,1.3 l -4.9,2.8 c -0.2,0.1 -0.5,0.1 -0.7,0 L 49,46.2 c -0.6,-0.3 -0.6,-1 -0.1,-1.3 z"
         id="path3385"
         inkscape:connector-curvature="0"
         style="fill:#2992c5" /><path
         class="st0"
         d="m 60.6,44.3 0,-5.7 c 0,-0.3 -0.1,-0.5 -0.4,-0.7 l -5,-2.8 c -0.5,-0.3 -1.1,0.1 -1.1,0.6 l 0,5.7 c 0,0.3 0.1,0.5 0.4,0.7 l 5,2.8 c 0.5,0.3 1.1,0 1.1,-0.6 z"
         id="path3387"
         inkscape:connector-curvature="0"
         style="fill:#5a5b5e" /><path
         class="st0"
         d="M 45.3,20.4 40.4,17.5 C 40.2,17.4 40,17.1 40,16.8 l 0,-5.7 c 0,-0.6 0.6,-0.9 1.1,-0.6 l 4.9,2.9 c 0.2,0.1 0.4,0.4 0.4,0.6 l 0,5.7 c 0,0.6 -0.6,1 -1.1,0.7 z"
         id="path3389"
         inkscape:connector-curvature="0"
         style="fill:#5a5b5e" /><path
         class="st1"
         d="m 38.9,10.5 -5,2.8 c -0.2,0.1 -0.4,0.4 -0.4,0.7 l 0,5.7 c 0,0.6 0.6,0.9 1.1,0.6 l 5,-2.8 C 39.8,17.4 40,17.1 40,16.9 l 0,-5.7 c 0.1,-0.6 -0.6,-0.9 -1.1,-0.7 z"
         id="path3391"
         inkscape:connector-curvature="0"
         style="fill:#2992c5" /></g><text
       xml:space="preserve"
       style="font-style:normal;font-weight:normal;font-size:40px;line-height:125%;font-family:sans-serif;letter-spacing:0px;word-spacing:0px;fill:#000000;fill-opacity:1;stroke:none;stroke-width:1px;stroke-linecap:butt;stroke-linejoin:miter;stroke-opacity:1"
       x="3.7358491"
       y="63.405659"
       id="text3405"
       sodipodi:linespacing="125%"><tspan
         sodipodi:role="line"
         id="tspan3407"
         x="3.7358491"
         y="63.405659" /></text>
<text
       xml:space="preserve"
       style="font-style:normal;font-variant:normal;font-weight:800;font-stretch:normal;font-size:15px;line-height:125%;font-family:'Rockwell Extra Bold';-inkscape-font-specification:'Rockwell Extra Bold,  Ultra-Bold';letter-spacing:0px;word-spacing:0px;fill:#000000;fill-opacity:1;stroke:none;stroke-width:1px;stroke-linecap:butt;stroke-linejoin:miter;stroke-opacity:1"
       x="8.6132078"
       y="80.632072"
       id="text3409"
       sodipodi:linespacing="125%"><tspan
         sodipodi:role="line"
         id="tspan3411"
         x="8.6132078"
         y="80.632072" /></text>
</g></svg>