<?xml version="1.0" standalone="no"?>
<!DOCTYPE svg PUBLIC "-//W3C//DTD SVG 20010904//EN"
 "http://www.w3.org/TR/2001/REC-SVG-20010904/DTD/svg10.dtd">
<svg version="1.0" xmlns="http://www.w3.org/2000/svg"
 width="302.000000pt" height="504.000000pt" viewBox="0 0 302.000000 504.000000"
 preserveAspectRatio="xMidYMid meet">
<metadata>
Created by potrace 1.15, written by Peter Selinger 2001-2017
</metadata>
<g transform="translate(0.000000,504.000000) scale(0.100000,-0.100000)"
fill="#000000" stroke="none">
<path d="M1463 4904 c-272 -46 -506 -220 -632 -471 -41 -82 -78 -215 -87 -308
l-7 -75 883 0 883 0 -7 75 c-9 93 -46 226 -87 308 -125 248 -390 443 -644 473
l-55 7 0 -157 0 -156 -85 0 -85 0 -2 158 -3 158 -72 -12z m276 -380 c21 -17
31 -35 31 -53 0 -53 -42 -88 -143 -118 l-51 -15 38 -13 c56 -20 90 -56 82 -89
-13 -52 -131 -106 -231 -106 -100 0 -137 68 -76 140 l28 34 -21 18 c-21 18
-21 18 -2 33 11 8 32 15 48 15 18 0 44 15 78 45 52 46 90 58 90 28 0 -9 -8
-25 -17 -35 -17 -19 -16 -19 12 -12 37 8 95 42 95 55 0 5 -11 14 -24 19 -36
13 -124 -4 -198 -38 -85 -40 -117 -47 -125 -27 -24 65 127 143 279 144 68 1
80 -2 107 -25z"/>
<path d="M415 4171 c-35 -21 -79 -70 -100 -111 -20 -39 -47 -202 -100 -600
-25 -190 -47 -355 -50 -366 -4 -18 15 -35 108 -102 330 -236 515 -326 725
-354 l94 -13 182 -357 c100 -197 185 -360 188 -363 3 -4 93 37 199 91 l194 96
125 224 c69 123 128 223 131 224 8 0 179 -257 179 -269 0 -6 -39 -93 -86 -195
l-87 -185 -31 24 c-17 13 -50 29 -74 36 -60 17 -138 -7 -182 -58 l-32 -36 4
-106 c11 -236 101 -322 256 -245 88 44 191 152 428 452 257 324 240 286 198
442 -36 132 -101 288 -197 470 -92 174 -136 238 -194 280 -53 39 -105 49 -250
50 l-123 0 0 53 c0 28 9 196 20 372 11 176 20 339 20 363 l0 42 -345 0 c-253
0 -345 -3 -345 -11 0 -24 50 -726 55 -777 l5 -53 -46 27 c-83 49 -220 42 -335
-16 l-36 -19 -37 45 c-57 68 -123 97 -221 98 -44 1 -99 -3 -122 -7 l-43 -9 0
65 c0 35 3 132 7 215 l6 152 41 0 c93 0 192 77 203 158 8 61 -13 108 -79 174
-112 112 -185 141 -253 99z m1093 -276 c36 -41 52 -91 51 -160 l-1 -50 -8 39
c-16 82 -96 112 -151 57 -39 -40 -39 -82 0 -122 39 -39 88 -40 126 -1 l28 27
-8 -25 c-12 -41 -42 -76 -75 -90 -68 -28 -136 43 -147 154 -7 67 10 128 48
171 25 28 38 35 69 35 31 0 44 -7 68 -35z m341 0 c79 -90 62 -269 -32 -320
-34 -18 -37 -19 -71 -3 -22 11 -43 32 -56 57 -28 55 -25 65 9 30 39 -38 88
-40 125 -3 37 37 35 86 -3 125 -53 53 -133 26 -151 -51 l-8 -35 -1 45 c-1 64
15 115 51 155 24 28 37 35 68 35 31 0 44 -7 69 -35z m-59 -484 c0 -12 -64 -67
-98 -85 -71 -36 -122 -28 -180 27 -71 68 -72 67 113 67 91 0 165 -4 165 -9z"/>
<path d="M1626 1948 l-158 -81 7 -106 c4 -58 10 -111 14 -118 4 -7 55 24 145
91 110 80 141 108 147 131 10 43 18 165 10 165 -3 0 -77 -37 -165 -82z"/>
<path d="M1628 1685 l-137 -105 6 -72 c3 -40 9 -77 13 -82 5 -4 63 31 129 80
l120 88 6 55 c3 31 8 75 10 99 3 23 1 42 -3 41 -4 0 -69 -47 -144 -104z"/>
<path d="M1628 1452 l-117 -87 6 -75 c9 -120 4 -118 120 -33 l101 75 7 76 c3
43 8 89 10 105 3 15 1 27 -3 27 -4 0 -60 -40 -124 -88z"/>
<path d="M1627 1204 c-88 -68 -98 -78 -93 -102 3 -15 8 -66 12 -114 3 -49 9
-88 11 -88 15 0 152 118 156 135 7 26 21 245 16 244 -2 0 -48 -34 -102 -75z"/>
<path d="M1627 904 c-37 -30 -67 -61 -67 -67 0 -34 62 -706 67 -727 9 -36 10
-31 43 380 16 206 32 396 35 423 3 26 2 47 -2 47 -5 0 -39 -25 -76 -56z"/>
</g>
</svg>
