<?xml version="1.0" encoding="UTF-8" standalone="no"?>
<svg
   xmlns:dc="http://purl.org/dc/elements/1.1/"
   xmlns:cc="http://creativecommons.org/ns#"
   xmlns:rdf="http://www.w3.org/1999/02/22-rdf-syntax-ns#"
   xmlns:svg="http://www.w3.org/2000/svg"
   xmlns="http://www.w3.org/2000/svg"
   xmlns:sodipodi="http://sodipodi.sourceforge.net/DTD/sodipodi-0.dtd"
   xmlns:inkscape="http://www.inkscape.org/namespaces/inkscape"
   version="1.0"
   width="302.000000pt"
   height="504.000000pt"
   viewBox="0 0 302.000000 504.000000"
   preserveAspectRatio="xMidYMid meet"
   id="svg2"
   inkscape:version="0.91 r13725"
   sodipodi:docname="bonanza.svg">
  <defs
     id="defs24" />
  <sodipodi:namedview
     pagecolor="#ffffff"
     bordercolor="#666666"
     borderopacity="1"
     objecttolerance="10"
     gridtolerance="10"
     guidetolerance="10"
     inkscape:pageopacity="0"
     inkscape:pageshadow="2"
     inkscape:window-width="1030"
     inkscape:window-height="666"
     id="namedview22"
     showgrid="false"
     inkscape:zoom="0.37460317"
     inkscape:cx="188.75"
     inkscape:cy="315"
     inkscape:window-x="1463"
     inkscape:window-y="202"
     inkscape:window-maximized="0"
     inkscape:current-layer="svg2" />
  <metadata
     id="metadata4">
Created by potrace 1.15, written by Peter Selinger 2001-2017
<rdf:RDF>
  <cc:Work
     rdf:about="">
    <dc:format>image/svg+xml</dc:format>
    <dc:type
       rdf:resource="http://purl.org/dc/dcmitype/StillImage" />
  </cc:Work>
</rdf:RDF>
</metadata>
  <path
     style="fill:#f40000;stroke:none;fill-opacity:1"
     inkscape:connector-curvature="0"
     id="path8"
     d="m 146.3,13.6 c -27.2,4.6 -50.6,22 -63.2,47.1 -4.1,8.2 -7.8,21.5 -8.7,30.8 l -0.7,7.5 88.3,0 88.3,0 -0.7,-7.5 C 248.7,82.2 245,68.9 240.9,60.7 228.4,35.9 201.9,16.4 176.5,13.4 l -5.5,-0.7 0,15.7 0,15.6 -8.5,0 -8.5,0 -0.2,-15.8 -0.3,-15.8 -7.2,1.2 z m 27.6,38 c 2.1,1.7 3.1,3.5 3.1,5.3 0,5.3 -4.2,8.8 -14.3,11.8 l -5.1,1.5 3.8,1.3 c 5.6,2 9,5.6 8.2,8.9 -1.3,5.2 -13.1,10.6 -23.1,10.6 -10,0 -13.7,-6.8 -7.6,-14 l 2.8,-3.4 -2.1,-1.8 c -2.1,-1.8 -2.1,-1.8 -0.2,-3.3 1.1,-0.8 3.2,-1.5 4.8,-1.5 1.8,0 4.4,-1.5 7.8,-4.5 5.2,-4.6 9,-5.8 9,-2.8 0,0.9 -0.8,2.5 -1.7,3.5 -1.7,1.9 -1.6,1.9 1.2,1.2 3.7,-0.8 9.5,-4.2 9.5,-5.5 0,-0.5 -1.1,-1.4 -2.4,-1.9 -3.6,-1.3 -12.4,0.4 -19.8,3.8 -8.5,4 -11.7,4.7 -12.5,2.7 -2.4,-6.5 12.7,-14.3 27.9,-14.4 6.8,-0.1 8,0.2 10.7,2.5 z" />
  <path
     style="fill:#0000c7;stroke:none;fill-opacity:1"
     inkscape:connector-curvature="0"
     id="path10"
     d="m 41.5,86.9 c -3.5,2.1 -7.9,7 -10,11.1 -2,3.9 -4.7,20.2 -10,60 -2.5,19 -4.7,35.5 -5,36.6 -0.4,1.8 1.5,3.5 10.8,10.2 33,23.6 51.5,32.6 72.5,35.4 l 9.4,1.3 18.2,35.7 c 10,19.7 18.5,36 18.8,36.3 0.3,0.4 9.3,-3.7 19.9,-9.1 l 19.4,-9.6 12.5,-22.4 c 6.9,-12.3 12.8,-22.3 13.1,-22.4 0.8,0 17.9,25.7 17.9,26.9 0,0.6 -3.9,9.3 -8.6,19.5 l -8.7,18.5 -3.1,-2.4 c -1.7,-1.3 -5,-2.9 -7.4,-3.6 -6,-1.7 -13.8,0.7 -18.2,5.8 l -3.2,3.6 0.4,10.6 c 1.1,23.6 10.1,32.2 25.6,24.5 8.8,-4.4 19.1,-15.2 42.8,-45.2 25.7,-32.4 24,-28.6 19.8,-44.2 -3.6,-13.2 -10.1,-28.8 -19.7,-47 -9.2,-17.4 -13.6,-23.8 -19.4,-28 -5.3,-3.9 -10.5,-4.9 -25,-5 l -12.3,0 0,-5.3 c 0,-2.8 0.9,-19.6 2,-37.2 1.1,-17.6 2,-33.9 2,-36.3 l 0,-4.2 -34.5,0 c -25.3,0 -34.5,0.3 -34.5,1.1 0,2.4 5,72.6 5.5,77.7 l 0.5,5.3 -4.6,-2.7 c -8.3,-4.9 -22,-4.2 -33.5,1.6 l -3.6,1.9 -3.7,-4.5 c -5.7,-6.8 -12.3,-9.7 -22.1,-9.8 -4.4,-0.1 -9.9,0.3 -12.2,0.7 l -4.3,0.9 0,-6.5 c 0,-3.5 0.3,-13.2 0.7,-21.5 l 0.6,-15.2 4.1,0 c 9.3,0 19.2,-7.7 20.3,-15.8 0.8,-6.1 -1.3,-10.8 -7.9,-17.4 C 55.6,85.6 48.3,82.7 41.5,86.9 Z m 109.3,27.6 c 3.6,4.1 5.2,9.1 5.1,16 l -0.1,5 -0.8,-3.9 c -1.6,-8.2 -9.6,-11.2 -15.1,-5.7 -3.9,4 -3.9,8.2 0,12.2 3.9,3.9 8.8,4 12.6,0.1 l 2.8,-2.7 -0.8,2.5 c -1.2,4.1 -4.2,7.6 -7.5,9 -6.8,2.8 -13.6,-4.3 -14.7,-15.4 -0.7,-6.7 1,-12.8 4.8,-17.1 2.5,-2.8 3.8,-3.5 6.9,-3.5 3.1,0 4.4,0.7 6.8,3.5 z m 34.1,0 c 7.9,9 6.2,26.9 -3.2,32 -3.4,1.8 -3.7,1.9 -7.1,0.3 -2.2,-1.1 -4.3,-3.2 -5.6,-5.7 -2.8,-5.5 -2.5,-6.5 0.9,-3 3.9,3.8 8.8,4 12.5,0.3 3.7,-3.7 3.5,-8.6 -0.3,-12.5 -5.3,-5.3 -13.3,-2.6 -15.1,5.1 l -0.8,3.5 -0.1,-4.5 c -0.1,-6.4 1.5,-11.5 5.1,-15.5 2.4,-2.8 3.7,-3.5 6.8,-3.5 3.1,0 4.4,0.7 6.9,3.5 z m -5.9,48.4 c 0,1.2 -6.4,6.7 -9.8,8.5 -7.1,3.6 -12.2,2.8 -18,-2.7 -7.1,-6.8 -7.2,-6.7 11.3,-6.7 9.1,0 16.5,0.4 16.5,0.9 z" />
  <path
     style="fill:#0000c7;stroke:none;fill-opacity:1"
     inkscape:connector-curvature="0"
     id="path12"
     d="m 162.6,309.2 -15.8,8.1 0.7,10.6 c 0.4,5.8 1,11.1 1.4,11.8 0.4,0.7 5.5,-2.4 14.5,-9.1 11,-8 14.1,-10.8 14.7,-13.1 1,-4.3 1.8,-16.5 1,-16.5 -0.3,0 -7.7,3.7 -16.5,8.2 z" />
  <path
     style="fill:#0000c7;stroke:none;fill-opacity:1"
     inkscape:connector-curvature="0"
     id="path14"
     d="m 162.8,335.5 -13.7,10.5 0.6,7.2 c 0.3,4 0.9,7.7 1.3,8.2 0.5,0.4 6.3,-3.1 12.9,-8 l 12,-8.8 0.6,-5.5 c 0.3,-3.1 0.8,-7.5 1,-9.9 0.3,-2.3 0.1,-4.2 -0.3,-4.1 -0.4,0 -6.9,4.7 -14.4,10.4 z" />
  <path
     style="fill:#0000c7;stroke:none;fill-opacity:1"
     inkscape:connector-curvature="0"
     id="path16"
     d="m 162.8,358.8 -11.7,8.7 0.6,7.5 c 0.9,12 0.4,11.8 12,3.3 l 10.1,-7.5 0.7,-7.6 c 0.3,-4.3 0.8,-8.9 1,-10.5 0.3,-1.5 0.1,-2.7 -0.3,-2.7 -0.4,0 -6,4 -12.4,8.8 z" />
  <path
     style="fill:#0000c7;stroke:none;fill-opacity:1"
     inkscape:connector-curvature="0"
     id="path18"
     d="m 162.7,383.6 c -8.8,6.8 -9.8,7.8 -9.3,10.2 0.3,1.5 0.8,6.6 1.2,11.4 0.3,4.9 0.9,8.8 1.1,8.8 1.5,0 15.2,-11.8 15.6,-13.5 0.7,-2.6 2.1,-24.5 1.6,-24.4 -0.2,0 -4.8,3.4 -10.2,7.5 z" />
  <path
     style="fill:#0000c7;stroke:none;fill-opacity:1"
     inkscape:connector-curvature="0"
     id="path20"
     d="m 162.7,413.6 c -3.7,3 -6.7,6.1 -6.7,6.7 0,3.4 6.2,70.6 6.7,72.7 0.9,3.6 1,3.1 4.3,-38 1.6,-20.6 3.2,-39.6 3.5,-42.3 0.3,-2.6 0.2,-4.7 -0.2,-4.7 -0.5,0 -3.9,2.5 -7.6,5.6 z" />
</svg>
