<svg width="350" height="450" xmlns="http://www.w3.org/2000/svg">
 <linearGradient y2="0.500886" x2="1.001291" y1="0.500886" x1="0.000075" id="SVGID_1_">
  <stop stop-color="#0C68B4" offset="0"/>
  <stop stop-color="#1477C7" offset="1"/>
 </linearGradient>
 <g>
  <title>Layer 1</title>
  <g id="svg_1">
   <g id="svg_2">
    <path id="svg_3" d="m200,280.600006v38.899994c0,8 6.399994,14.5 14.399994,14.5c8,0 14.300018,-6.5 14.300018,-14.5l7.399994,-26.799988v-5.100006l-36.100006,-7z" fill="#ffffff"/>
    <path id="svg_4" d="m149.200012,334c8,0 14.799988,-6.5 14.799988,-14.5v-38.5l-36,6.600006v8.699982l6.600006,23.200012c0,8 6.600006,14.5 14.600006,14.5z" fill="#ffffff"/>
    <path id="svg_5" d="m148.200012,397l33.399994,20.899994l33.800018,-20.899994c10,-6.200012 17,-16 19.699982,-27h-106.200012c2.600006,11 9.300018,20.899994 19.300018,27z" fill="#ffffff"/>
    <path id="svg_6" d="m200,270.200012v-19.700012c0,-10 -8,-18.199982 -18,-18.199982c-10,0 -18,8.100006 -18,18.199982v20.100006l19.399994,-3.600006l16.600006,3.200012z" fill="#63a3e2"/>
    <path id="svg_7" d="m181.5,203.299988c48.899994,0 76.200012,-62.300003 76.200012,-104.699997c0,-42.399994 -34.100006,-76.800003 -76.200012,-76.800003c-42.100006,0 -76.200012,34.400009 -76.200012,76.800003c0,42.400009 26.400024,104.699997 76.200012,104.699997z" fill="#63a3e2"/>
    <path id="svg_8" d="m118,279.100006l4.799988,-0.899994l-13.099976,-45.400024c-26.400024,7.400024 -44.900024,20.200012 -60.200012,40.100006c-6,7.800018 -9.799988,23.600006 -10,32c0.100006,2.200012 -0.5,4.700012 -0.5,7.300018v14.5v14.5c0,16 14,28.699982 30,28.699982h49.5c-0.600006,-3 -0.5,-6.5 -0.5,-10v-80.799988l0,0z" fill="#63a3e2"/>
    <path id="svg_9" d="m323.599976,305c-0.200012,-8.399994 -3.700012,-24.200012 -9.700012,-32c-15.200012,-19.899994 -33.799988,-32.799988 -60.199982,-40.100006l-12.799988,45.100006l6.100006,1.100006v80.899994c0,3.5 -0.800018,7 -1.400024,10h48.5c16,0 29.900024,-12.700012 29.900024,-28.700012v-14.5v-14.5c0,-2.599976 -0.5,-5.199982 -0.400024,-7.299988z" fill="#63a3e2"/>
   </g>
  </g>
  <g id="svg_10">
   <path id="svg_11" d="m182.399994,287.200012l44.100006,8.299988v64.5c0,11.899994 -6.100006,22.799988 -16.200012,29.100006l-28.700012,17.699982l-28.699982,-17.799988c-10.200012,-6.299988 -16.200012,-17.100006 -16.200012,-29.100006v-64.399994l45.700012,-8.299988m0,-15l-60.399994,11.099976v76.700012c0,16.899994 8.799988,32.700012 23.200012,41.600006l36.399994,22.399994l36.399994,-22.399994c14.399994,-8.899994 23.200012,-24.600006 23.200012,-41.600006v-76.600006l-58.800018,-11.199982l0,0z" fill="#7f7f7f"/>
  </g>
  <path id="svg_12" d="m181.5,310c-18.399994,0 -33.299988,14.899994 -33.299988,33.299988s14.899994,33.300018 33.299988,33.300018c18.399994,0 33.299988,-14.899994 33.299988,-33.300018s-14.799988,-33.299988 -33.299988,-33.299988zm0,8.899994c5.100006,0 9.899994,1.600006 13.899994,4.299988l-34,34c-2.699982,-3.899994 -4.299988,-8.699982 -4.299988,-13.899994c0,-13.399994 10.899994,-24.399994 24.399994,-24.399994zm0,48.899994c-5.100006,0 -9.899994,-1.600006 -13.899994,-4.299988l34,-34c2.699982,3.899994 4.299988,8.699982 4.299988,13.899994c0.100006,13.5 -10.899994,24.399994 -24.399994,24.399994z" fill="#63a3e2"/>
 </g>
</svg>