<?xml version="1.0" encoding="UTF-8" standalone="no"?>
<!-- Generator: Adobe Illustrator 15.1.0, SVG Export Plug-In . SVG Version: 6.00 Build 0)  -->

<svg
   xmlns:dc="http://purl.org/dc/elements/1.1/"
   xmlns:cc="http://creativecommons.org/ns#"
   xmlns:rdf="http://www.w3.org/1999/02/22-rdf-syntax-ns#"
   xmlns:svg="http://www.w3.org/2000/svg"
   xmlns="http://www.w3.org/2000/svg"
   xmlns:sodipodi="http://sodipodi.sourceforge.net/DTD/sodipodi-0.dtd"
   xmlns:inkscape="http://www.inkscape.org/namespaces/inkscape"
   version="1.1"
   id="Layer_2"
   x="0px"
   y="0px"
   width="100px"
   height="100px"
   viewBox="0 0 100 100"
   enable-background="new 0 0 100 100"
   xml:space="preserve"
   inkscape:version="0.91 r13725"
   sodipodi:docname="close-info.svg"><metadata
     id="metadata9"><rdf:RDF><cc:Work
         rdf:about=""><dc:format>image/svg+xml</dc:format><dc:type
           rdf:resource="http://purl.org/dc/dcmitype/StillImage" /></cc:Work></rdf:RDF></metadata><defs
     id="defs7" /><sodipodi:namedview
     pagecolor="#ffffff"
     bordercolor="#666666"
     borderopacity="1"
     objecttolerance="10"
     gridtolerance="10"
     guidetolerance="10"
     inkscape:pageopacity="0"
     inkscape:pageshadow="2"
     inkscape:window-width="693"
     inkscape:window-height="480"
     id="namedview5"
     showgrid="false"
     inkscape:zoom="2.36"
     inkscape:cx="50"
     inkscape:cy="50"
     inkscape:window-x="0"
     inkscape:window-y="0"
     inkscape:window-maximized="0"
     inkscape:current-layer="Layer_2" /><path
     fill="#EC008C"
     d="M76.83,32.561L59.393,50L76.83,67.439c2.594,2.594,2.594,6.798,0,9.392  c-1.296,1.296-2.995,1.944-4.694,1.944c-1.7,0-3.399-0.647-4.694-1.944L50,59.391l-17.44,17.44  c-1.296,1.296-2.995,1.944-4.695,1.944c-1.699,0-3.397-0.647-4.694-1.944c-2.594-2.593-2.594-6.797,0-9.392L40.608,50L23.17,32.561  c-2.594-2.594-2.594-6.798,0-9.392c2.593-2.592,6.795-2.592,9.389,0L50,40.609l17.439-17.44c2.595-2.592,6.797-2.592,9.39,0  C79.424,25.763,79.424,29.967,76.83,32.561z"
     id="path3"
     style="fill:#004085;fill-opacity:1" /></svg>