<?xml version="1.0" encoding="UTF-8" standalone="no"?>
<!-- Generator: Adobe Illustrator 15.1.0, SVG Export Plug-In . SVG Version: 6.00 Build 0)  -->

<svg
   xmlns:dc="http://purl.org/dc/elements/1.1/"
   xmlns:cc="http://creativecommons.org/ns#"
   xmlns:rdf="http://www.w3.org/1999/02/22-rdf-syntax-ns#"
   xmlns:svg="http://www.w3.org/2000/svg"
   xmlns="http://www.w3.org/2000/svg"
   xmlns:sodipodi="http://sodipodi.sourceforge.net/DTD/sodipodi-0.dtd"
   xmlns:inkscape="http://www.inkscape.org/namespaces/inkscape"
   version="1.1"
   id="Layer_3"
   x="0px"
   y="0px"
   width="100px"
   height="100px"
   viewBox="0 0 100 100"
   enable-background="new 0 0 100 100"
   xml:space="preserve"
   inkscape:version="0.91 r13725"
   sodipodi:docname="error.svg"><metadata
     id="metadata13"><rdf:RDF><cc:Work
         rdf:about=""><dc:format>image/svg+xml</dc:format><dc:type
           rdf:resource="http://purl.org/dc/dcmitype/StillImage" /></cc:Work></rdf:RDF></metadata><defs
     id="defs11" /><sodipodi:namedview
     pagecolor="#ffffff"
     bordercolor="#666666"
     borderopacity="1"
     objecttolerance="10"
     gridtolerance="10"
     guidetolerance="10"
     inkscape:pageopacity="0"
     inkscape:pageshadow="2"
     inkscape:window-width="1366"
     inkscape:window-height="705"
     id="namedview9"
     showgrid="false"
     inkscape:zoom="2.36"
     inkscape:cx="50"
     inkscape:cy="50"
     inkscape:window-x="-8"
     inkscape:window-y="-8"
     inkscape:window-maximized="1"
     inkscape:current-layer="Layer_3" /><g
     id="g3"
     style="fill:#aa1c24;fill-opacity:1"><path
       fill="#9FADB5"
       d="M19.678,19.678v60.646h60.646V19.678H19.678z M73.661,22.979c1.088,0,1.963,0.879,1.963,1.959   c0,1.086-0.875,1.968-1.963,1.968c-1.083,0-1.963-0.882-1.963-1.968C71.698,23.86,72.578,22.979,73.661,22.979z M66.809,22.979   c1.077,0,1.961,0.879,1.961,1.959c0,1.086-0.884,1.968-1.961,1.968c-1.089,0-1.964-0.882-1.964-1.968   C64.845,23.86,65.72,22.979,66.809,22.979z M75.632,75.723H24.37V31.151h51.262V75.723z"
       id="path5"
       style="fill:#aa1c24;fill-opacity:1" /><path
       fill="#9FADB5"
       d="M50,73.089c10.762,0,19.479-8.717,19.479-19.471c0-10.753-8.717-19.479-19.479-19.479   c-10.759,0-19.481,8.726-19.481,19.479C30.519,64.377,39.241,73.089,50,73.089z M38.694,46.255l3.942-3.942L50,49.679l7.359-7.366   l3.936,3.942l-7.357,7.36l7.36,7.354l-3.94,3.942L50,57.557l-7.363,7.359l-3.942-3.941l7.36-7.355L38.694,46.255z"
       id="path7"
       style="fill:#aa1c24;fill-opacity:1" /></g></svg>