<?xml version="1.0" encoding="UTF-8" standalone="no"?>
<!-- Generator: Adobe Illustrator 15.1.0, SVG Export Plug-In . SVG Version: 6.00 Build 0)  -->

<svg
   xmlns:dc="http://purl.org/dc/elements/1.1/"
   xmlns:cc="http://creativecommons.org/ns#"
   xmlns:rdf="http://www.w3.org/1999/02/22-rdf-syntax-ns#"
   xmlns:svg="http://www.w3.org/2000/svg"
   xmlns="http://www.w3.org/2000/svg"
   xmlns:sodipodi="http://sodipodi.sourceforge.net/DTD/sodipodi-0.dtd"
   xmlns:inkscape="http://www.inkscape.org/namespaces/inkscape"
   version="1.1"
   id="Layer_3"
   x="0px"
   y="0px"
   width="100px"
   height="100px"
   viewBox="0 0 100 100"
   enable-background="new 0 0 100 100"
   xml:space="preserve"
   inkscape:version="0.91 r13725"
   sodipodi:docname="info.svg"><metadata
     id="metadata13"><rdf:RDF><cc:Work
         rdf:about=""><dc:format>image/svg+xml</dc:format><dc:type
           rdf:resource="http://purl.org/dc/dcmitype/StillImage" /></cc:Work></rdf:RDF></metadata><defs
     id="defs11" /><sodipodi:namedview
     pagecolor="#ffffff"
     bordercolor="#666666"
     borderopacity="1"
     objecttolerance="10"
     gridtolerance="10"
     guidetolerance="10"
     inkscape:pageopacity="0"
     inkscape:pageshadow="2"
     inkscape:window-width="693"
     inkscape:window-height="480"
     id="namedview9"
     showgrid="false"
     inkscape:zoom="2.36"
     inkscape:cx="50"
     inkscape:cy="50"
     inkscape:window-x="0"
     inkscape:window-y="0"
     inkscape:window-maximized="0"
     inkscape:current-layer="Layer_3" /><g
     id="g3"
     style="fill:#004085;fill-opacity:1"><path
       fill="#63BCE2"
       d="M58.866,72.846c-0.022,0.008-2.118,0.704-3.939,0.704c-1,0-1.407-0.208-1.536-0.301   c-0.638-0.44-1.82-1.272,0.203-5.308l3.791-7.561c2.252-4.492,2.585-8.832,0.934-12.231c-1.354-2.777-3.938-4.686-7.282-5.367   c-1.202-0.246-2.424-0.369-3.633-0.369c-7.012,0-11.731,4.095-11.93,4.27c-0.678,0.6-0.837,1.592-0.387,2.374   c0.455,0.781,1.393,1.137,2.257,0.843c0.019-0.008,2.12-0.709,3.94-0.709c0.996,0,1.397,0.208,1.523,0.296   c0.641,0.446,1.827,1.289-0.194,5.316l-3.792,7.562c-2.251,4.495-2.581,8.836-0.928,12.23c1.35,2.776,3.935,4.685,7.284,5.365   c1.19,0.241,2.412,0.37,3.618,0.37c7.013,0,11.738-4.096,11.938-4.271c0.674-0.596,0.838-1.592,0.386-2.373   C60.666,72.912,59.719,72.564,58.866,72.846z"
       id="path5"
       style="fill:#004085;fill-opacity:1" /><path
       fill="#63BCE2"
       d="M55.689,19.667c5.235,0,9.479,4.244,9.479,9.479c0,5.236-4.243,9.48-9.479,9.48   c-5.238,0-9.481-4.244-9.481-9.48C46.208,23.911,50.451,19.667,55.689,19.667z"
       id="path7"
       style="fill:#004085;fill-opacity:1" /></g></svg>